RobotoFlexCondensed-Light.ufo
<glyph name="exclam" format="2">
  <advance width="540"/>
  <unicode hex="0021"/>
  <outline>
    <contour>
      <point x="186.0" y="74.84215686273667" type="curve" smooth="yes"/>
      <point x="186" y="128"/>
      <point x="216" y="172"/>
      <point x="270.20915032678334" y="171.68431372547334" type="curve" smooth="yes"/>
      <point x="325" y="172"/>
      <point x="354" y="128"/>
      <point x="353.7016339869" y="74.84215686273667" type="curve" smooth="yes"/>
      <point x="354" y="21"/>
      <point x="325" y="-22"/>
      <point x="270.20915032678334" y="-22.0" type="curve" smooth="yes"/>
      <point x="216" y="-22"/>
      <point x="186" y="21"/>
    </contour>
    <contour>
      <point x="220.97516339869" y="395.50065359476" type="line"/>
      <point x="212.28333333333333" y="1456.0" type="line"/>
      <point x="327.06830065356667" y="1456.0" type="line"/>
      <point x="318.15163398690004" y="395.50065359476" type="line"/>
    </contour>
  </outline>
</glyph>
<glyph name="parenleft" format="2">
  <advance width="621"/>
  <unicode hex="0028"/>
  <outline>
    <contour>
      <point x="561.5457516339884" y="-436.0" type="line"/>
      <point x="301" y="-326"/>
      <point x="124" y="-48"/>
      <point x="124.0" y="515.0" type="curve" smooth="yes"/>
      <point x="124.0" y="525.0" type="line" smooth="yes"/>
      <point x="124" y="1059"/>
      <point x="301" y="1366"/>
      <point x="561.5457516339884" y="1476.0" type="curve"/>
      <point x="561.5457516339884" y="1398.3522875817316" type="line"/>
      <point x="373" y="1303"/>
      <point x="240" y="1057"/>
      <point x="239.57980392154334" y="532.0" type="curve" smooth="yes"/>
      <point x="239.57980392154334" y="508.0" type="line" smooth="yes"/>
      <point x="240" y="-41"/>
      <point x="373" y="-262"/>
      <point x="561.5457516339884" y="-356.91895424839834" type="curve"/>
    </contour>
  </outline>
</glyph>
<glyph name="comma" format="2">
  <advance width="520"/>
  <unicode hex="002C"/>
  <outline>
    <contour>
      <point x="142.98167320262002" y="-172.80632679738" type="line"/>
      <point x="187" y="-106"/>
      <point x="210" y="-40"/>
      <point x="210.0" y="55.204993464046666" type="curve" smooth="yes"/>
      <point x="210.0" y="175.79898039214" type="line"/>
      <point x="330.25864052285334" y="175.79898039214" type="line"/>
      <point x="330.25864052285334" y="55.204993464046666" type="line" smooth="yes"/>
      <point x="330" y="-62"/>
      <point x="286" y="-153"/>
      <point x="217.00582352940333" y="-222.72665359476" type="curve"/>
    </contour>
  </outline>
</glyph>
<glyph name="eight" format="2">
  <advance width="1074"/>
  <unicode hex="0038"/>
  <outline>
    <contour>
      <point x="121.75550887024285" y="380.98333333333335" type="curve" smooth="yes"/>
      <point x="122" y="565"/>
      <point x="227" y="686"/>
      <point x="380.5216153127988" y="742.1149859944062" type="curve"/>
      <point x="380.5216153127988" y="746.1149859944062" type="line"/>
      <point x="250" y="798"/>
      <point x="164" y="930"/>
      <point x="164.30648926238285" y="1092.0166666666667" type="curve" smooth="yes"/>
      <point x="164" y="1330"/>
      <point x="321" y="1486"/>
      <point x="535.9523342670204" y="1486.0" type="curve" smooth="yes"/>
      <point x="751" y="1486"/>
      <point x="910" y="1327"/>
      <point x="910.3627917833956" y="1092.0166666666667" type="curve" smooth="yes"/>
      <point x="910" y="930"/>
      <point x="824" y="799"/>
      <point x="692.6582166200038" y="746.1149859944062" type="curve"/>
      <point x="692.6582166200038" y="742.1149859944062" type="line"/>
      <point x="851" y="691"/>
      <point x="953" y="568"/>
      <point x="953.4056022408921" y="380.98333333333335" type="curve" smooth="yes"/>
      <point x="953" y="119"/>
      <point x="775" y="-30"/>
      <point x="535.9523342670204" y="-30.0" type="curve" smooth="yes"/>
      <point x="297" y="-30"/>
      <point x="122" y="119"/>
    </contour>
    <contour>
      <point x="235.90714285714284" y="385.39183006535666" type="curve" smooth="yes"/>
      <point x="236" y="200"/>
      <point x="348" y="71"/>
      <point x="535.9523342670204" y="72.31732026142666" type="curve" smooth="yes"/>
      <point x="723" y="72"/>
      <point x="838" y="189"/>
      <point x="838.1873015873255" y="385.39183006535666" type="curve" smooth="yes"/>
      <point x="838" y="569"/>
      <point x="723" y="694"/>
      <point x="535.9523342670204" y="693.6663398692866" type="curve" smooth="yes"/>
      <point x="348" y="693"/>
      <point x="236" y="570"/>
    </contour>
    <contour>
      <point x="275.89145658261623" y="1087.6081699346435" type="curve" smooth="yes"/>
      <point x="276" y="918"/>
      <point x="373" y="797"/>
      <point x="535.9523342670204" y="796.3336601307134" type="curve" smooth="yes"/>
      <point x="698" y="796"/>
      <point x="799" y="918"/>
      <point x="798.7778244630905" y="1087.6081699346435" type="curve" smooth="yes"/>
      <point x="799" y="1262"/>
      <point x="698" y="1384"/>
      <point x="535.9523342670204" y="1383.6826797385734" type="curve" smooth="yes"/>
      <point x="373" y="1385"/>
      <point x="276" y="1262"/>
    </contour>
  </outline>
</glyph>
<glyph name="M" format="2">
  <advance width="1560"/>
  <unicode hex="004D"/>
  <outline>
    <contour>
      <point x="170.0" y="0.0" type="line"/>
      <point x="170.0" y="1456.0" type="line"/>
      <point x="321.3689542483983" y="1456.0" type="line"/>
      <point x="738.089215686245" y="257.7287114845812" type="line" smooth="yes"/>
      <point x="754" y="210"/>
      <point x="767" y="179"/>
      <point x="775.6326797385733" y="131.31465919702617" type="curve"/>
      <point x="781.49934640524" y="131.31465919702617" type="line"/>
      <point x="791" y="179"/>
      <point x="802" y="211"/>
      <point x="818.0169934640467" y="258.79537815124786" type="curve" smooth="yes"/>
      <point x="1241.8130718954149" y="1456.0" type="line"/>
      <point x="1389.9653594771466" y="1456.0" type="line"/>
      <point x="1389.9653594771466" y="0.0" type="line"/>
      <point x="1277.0970588235082" y="0.0" type="line"/>
      <point x="1277.0970588235082" y="1110.9803921568416" type="line" smooth="yes"/>
      <point x="1277" y="1160"/>
      <point x="1285" y="1223"/>
      <point x="1286.2293650793413" y="1270.513725490175" type="curve"/>
      <point x="1277.3722222221984" y="1270.513725490175" type="line"/>
      <point x="1269" y="1223"/>
      <point x="1248" y="1160"/>
      <point x="1231.8297385620817" y="1110.9803921568416" type="curve" smooth="yes"/>
      <point x="833.4836601307134" y="0.0" type="line"/>
      <point x="722.1725490195784" y="0.0" type="line"/>
      <point x="321.46830065356664" y="1110.263725490175" type="line" smooth="yes"/>
      <point x="305" y="1159"/>
      <point x="286" y="1222"/>
      <point x="278.63398692809335" y="1269.7970588235082" type="curve"/>
      <point x="269.77684407095046" y="1269.7970588235082" type="line"/>
      <point x="271" y="1222"/>
      <point x="278" y="1159"/>
      <point x="278.33431372547335" y="1110.263725490175" type="curve" smooth="yes"/>
      <point x="278.33431372547335" y="0.0" type="line"/>
    </contour>
  </outline>
</glyph>
<glyph name="N" format="2">
  <advance width="1245"/>
  <unicode hex="004E"/>
  <outline>
    <contour>
      <point x="170.0" y="0.0" type="line"/>
      <point x="170.0" y="1456.0" type="line"/>
      <point x="317.0686274509467" y="1456.0" type="line"/>
      <point x="904.1983660131" y="285.8846405228533" type="line" smooth="yes"/>
      <point x="919" y="252"/>
      <point x="948" y="186"/>
      <point x="962.3316526610729" y="142.20980392154334" type="curve"/>
      <point x="970.7602240896443" y="142.20980392154334" type="line"/>
      <point x="964" y="190"/>
      <point x="964" y="245"/>
      <point x="964.4405228758368" y="287.98464052285334" type="curve" smooth="yes"/>
      <point x="964.4405228758368" y="1456.0" type="line"/>
      <point x="1075.4524967320233" y="1456.0" type="line"/>
      <point x="1075.4524967320233" y="0.0" type="line"/>
      <point x="927.7728758169584" y="0.0" type="line"/>
      <point x="334.14346405225666" y="1179.1150326797667" type="line" smooth="yes"/>
      <point x="315" y="1220"/>
      <point x="284" y="1270"/>
      <point x="277.93263305321284" y="1310.37320261441" type="curve"/>
      <point x="268.0146125116657" y="1310.37320261441" type="line"/>
      <point x="276" y="1263"/>
      <point x="278" y="1205"/>
      <point x="278.2676470588067" y="1159.1150326797667" type="curve" smooth="yes"/>
      <point x="278.2676470588067" y="0.0" type="line"/>
    </contour>
  </outline>
</glyph>
<glyph name="Q" format="2">
  <advance width="1235"/>
  <unicode hex="0051"/>
  <outline>
    <contour>
      <point x="115.0" y="692.8174509804217" type="curve" smooth="yes"/>
      <point x="115.0" y="763.1825490195783" type="line" smooth="yes"/>
      <point x="115" y="1259"/>
      <point x="315" y="1486"/>
      <point x="617.5315490195784" y="1486.0" type="curve" smooth="yes"/>
      <point x="919" y="1486"/>
      <point x="1119" y="1259"/>
      <point x="1118.9964313725616" y="763.1825490195783" type="curve" smooth="yes"/>
      <point x="1118.9964313725616" y="692.8174509804217" type="line" smooth="yes"/>
      <point x="1119" y="197"/>
      <point x="919" y="-30"/>
      <point x="617.5315490195784" y="-30.0" type="curve" smooth="yes"/>
      <point x="316" y="-30"/>
      <point x="115" y="197"/>
    </contour>
    <contour>
      <point x="230.6019673202333" y="650.150784313755" type="line" smooth="yes"/>
      <point x="231" y="250"/>
      <point x="378" y="76"/>
      <point x="617.5315490195784" y="75.56981699344999" type="curve" smooth="yes"/>
      <point x="857" y="76"/>
      <point x="1002" y="250"/>
      <point x="1002.32779738559" y="650.150784313755" type="curve" smooth="yes"/>
      <point x="1002.32779738559" y="805.849215686245" type="line" smooth="yes"/>
      <point x="1002" y="1206"/>
      <point x="857" y="1380"/>
      <point x="617.5315490195784" y="1380.4301830065501" type="curve" smooth="yes"/>
      <point x="378" y="1380"/>
      <point x="231" y="1206"/>
      <point x="230.6019673202333" y="805.849215686245" type="curve" smooth="yes"/>
    </contour>
    <contour>
      <point x="1055.4315032679767" y="-229.35699346404667" type="line"/>
      <point x="580.6013202614266" y="158.38" type="line"/>
      <point x="660.838111111135" y="238.19981699344999" type="line"/>
      <point x="1137.6711241830417" y="-146.48201307190666" type="line"/>
    </contour>
  </outline>
</glyph>
<glyph name="U" format="2">
  <advance width="1167"/>
  <unicode hex="0055"/>
  <outline>
    <contour>
      <point x="155.0" y="490.488235294105" type="curve" smooth="yes"/>
      <point x="155.0" y="1456.0" type="line"/>
      <point x="268.64047058821" y="1456.0" type="line"/>
      <point x="268.64047058821" y="447.82156862743835" type="line" smooth="yes"/>
      <point x="269" y="194"/>
      <point x="392" y="76"/>
      <point x="583.462418300655" y="75.56981699344999" type="curve" smooth="yes"/>
      <point x="772" y="76"/>
      <point x="895" y="195"/>
      <point x="895.1673725490534" y="447.82156862743835" type="curve" smooth="yes"/>
      <point x="895.1673725490534" y="1456.0" type="line"/>
      <point x="1010.3663398692867" y="1456.0" type="line"/>
      <point x="1010.3663398692867" y="490.488235294105" type="line" smooth="yes"/>
      <point x="1010" y="113"/>
      <point x="833" y="-30"/>
      <point x="582.9705882352984" y="-30.0" type="curve" smooth="yes"/>
      <point x="333" y="-30"/>
      <point x="155" y="113"/>
    </contour>
  </outline>
</glyph>
<glyph name="W" format="2">
  <advance width="1620"/>
  <unicode hex="0057"/>
  <outline>
    <contour>
      <point x="378.5431372548767" y="-10.0" type="line"/>
      <point x="50.0" y="1456.0" type="line"/>
      <point x="164.41451914101643" y="1456.0" type="line"/>
      <point x="416.8356676003538" y="264.62254901957834" type="line" smooth="yes"/>
      <point x="427" y="216"/>
      <point x="433" y="191"/>
      <point x="439.8563492063731" y="142.5002334267307" type="curve"/>
      <point x="444.44887955185027" y="142.5002334267307" type="line"/>
      <point x="451" y="191"/>
      <point x="456" y="216"/>
      <point x="466.4131185807755" y="264.62254901957834" type="curve" smooth="yes"/>
      <point x="742.8302521008319" y="1456.0" type="line"/>
      <point x="881.5511204481497" y="1456.0" type="line"/>
      <point x="1165.1679271708979" y="264.62254901957834" type="line" smooth="yes"/>
      <point x="1176" y="216"/>
      <point x="1180" y="191"/>
      <point x="1190.3488328664898" y="142.5002334267307" type="curve"/>
      <point x="1196.4308123249425" y="142.5002334267307" type="line"/>
      <point x="1203" y="191"/>
      <point x="1208" y="216"/>
      <point x="1216.1198879551778" y="264.62254901957834" type="curve" smooth="yes"/>
      <point x="1459.4750233426803" y="1456.0" type="line"/>
      <point x="1570.2722222221985" y="1456.0" type="line"/>
      <point x="1242.7957516339884" y="-10.0" type="line"/>
      <point x="1118.155088702142" y="-10.0" type="line"/>
      <point x="831.7529411764917" y="1197.562418300655" type="line" smooth="yes"/>
      <point x="820" y="1246"/>
      <point x="815" y="1282"/>
      <point x="810.0791783379709" y="1319.5839869280933" type="curve"/>
      <point x="802.5077497665424" y="1319.5839869280933" type="line"/>
      <point x="798" y="1282"/>
      <point x="793" y="1246"/>
      <point x="782.3924836601167" y="1197.562418300655" type="curve" smooth="yes"/>
      <point x="501.0504668533897" y="-10.0" type="line"/>
    </contour>
  </outline>
</glyph>
<glyph name="Y" format="2">
  <advance width="1023"/>
  <unicode hex="0059"/>
  <outline>
    <contour>
      <point x="453.74224836601167" y="0.0" type="line"/>
      <point x="453.74224836601167" y="571.94850980393" type="line"/>
      <point x="15.0" y="1456.0" type="line"/>
      <point x="143.27843137256167" y="1456.0" type="line"/>
      <point x="449.2950980392284" y="824.09967320262" type="line" smooth="yes"/>
      <point x="468" y="784"/>
      <point x="490" y="721"/>
      <point x="508.9800653594616" y="675.136834733864" type="curve"/>
      <point x="519.038562091485" y="675.136834733864" type="line"/>
      <point x="538" y="721"/>
      <point x="557" y="784"/>
      <point x="576.57352941179" y="824.09967320262" type="curve" smooth="yes"/>
      <point x="886.2205228758367" y="1456.0" type="line"/>
      <point x="1007.6834640522567" y="1456.0" type="line"/>
      <point x="568.4493856208883" y="571.94850980393" type="line"/>
      <point x="568.4493856208883" y="0.0" type="line"/>
    </contour>
  </outline>
</glyph>
<glyph name="e" format="2">
  <advance width="906"/>
  <unicode hex="0065"/>
  <outline>
    <contour>
      <point x="85.0" y="522.4285714285714" type="curve" smooth="yes"/>
      <point x="85.0" y="554.4285714285714" type="line" smooth="yes"/>
      <point x="85" y="909"/>
      <point x="242" y="1107"/>
      <point x="480.74052287583663" y="1106.857142857143" type="curve" smooth="yes"/>
      <point x="717" y="1107"/>
      <point x="847" y="942"/>
      <point x="847.3633986927949" y="572.4285714285714" type="curve" smooth="yes"/>
      <point x="847.3633986927949" y="521.4530812325014" type="line"/>
      <point x="134.49150326797667" y="521.4530812325014" type="line"/>
      <point x="134.49150326797667" y="618.9122315592848" type="line"/>
      <point x="732.9940709617279" y="618.9122315592848" type="line"/>
      <point x="732.9940709617279" y="614.4675070027969" type="line" smooth="yes"/>
      <point x="733" y="872"/>
      <point x="675" y="1006"/>
      <point x="468.82492997195925" y="1005.6228291316695" type="curve" smooth="yes"/>
      <point x="296" y="1006"/>
      <point x="194" y="879"/>
      <point x="194.32614379083" y="586.4285714285714" type="curve" smooth="yes"/>
      <point x="194.32614379083" y="490.42857142857144" type="line" smooth="yes"/>
      <point x="194" y="211"/>
      <point x="283" y="71"/>
      <point x="498.98300653595334" y="71.23431372547333" type="curve" smooth="yes"/>
      <point x="629" y="71"/>
      <point x="700" y="130"/>
      <point x="760.0702614379184" y="213.90980392154333" type="curve"/>
      <point x="851.9794117647016" y="160.21666666666667" type="line"/>
      <point x="786" y="42"/>
      <point x="670" y="-30"/>
      <point x="509.64967320261997" y="-30.0" type="curve" smooth="yes"/>
      <point x="235" y="-30"/>
      <point x="85" y="167"/>
    </contour>
  </outline>
</glyph>
<glyph name="h" format="2">
  <advance width="982"/>
  <unicode hex="0068"/>
  <outline>
    <contour>
      <point x="148.0" y="0.0" type="line"/>
      <point x="148.0" y="1536.0" type="line"/>
      <point x="259.8891372548767" y="1536.0" type="line"/>
      <point x="259.8891372548767" y="915.1319140989912" type="line"/>
      <point x="324" y="1031"/>
      <point x="413" y="1097"/>
      <point x="564.2456106442914" y="1096.857142857143" type="curve" smooth="yes"/>
      <point x="740" y="1097"/>
      <point x="844" y="988"/>
      <point x="844.3227712418484" y="762.0731559290496" type="curve" smooth="yes"/>
      <point x="844.3227712418484" y="0.0" type="line"/>
      <point x="731.9418039215433" y="0.0" type="line"/>
      <point x="731.9418039215433" y="764.0731559290496" type="line" smooth="yes"/>
      <point x="732" y="917"/>
      <point x="669" y="995"/>
      <point x="537.57003921572" y="995.3886591970262" type="curve" smooth="yes"/>
      <point x="403" y="995"/>
      <point x="306" y="900"/>
      <point x="259.8891372548767" y="793.4964239029212" type="curve"/>
      <point x="259.8891372548767" y="0.0" type="line"/>
    </contour>
  </outline>
</glyph>
<glyph name="r" format="2">
  <advance width="621"/>
  <unicode hex="0072"/>
  <outline>
    <contour>
      <point x="148.0" y="0.0" type="line"/>
      <point x="148.0" y="1076.857142857143" type="line"/>
      <point x="252.0596339869" y="1076.857142857143" type="line"/>
      <point x="255.58613071892333" y="948.7672082166044" type="line"/>
      <point x="255.28264052285334" y="948.7672082166044" type="line"/>
      <point x="311" y="1034"/>
      <point x="394" y="1107"/>
      <point x="511.1090457516017" y="1106.857142857143" type="curve" smooth="yes"/>
      <point x="542" y="1107"/>
      <point x="577" y="1098"/>
      <point x="591.14516339869" y="1092.857142857143" type="curve"/>
      <point x="591.14516339869" y="984.7354957983362" type="line"/>
      <point x="563" y="990"/>
      <point x="536" y="995"/>
      <point x="502.4065490195784" y="994.6848291316695" type="curve" smooth="yes"/>
      <point x="391" y="995"/>
      <point x="305" y="920"/>
      <point x="259.8891372548767" y="821.8162278244645" type="curve"/>
      <point x="259.8891372548767" y="0.0" type="line"/>
    </contour>
  </outline>
</glyph>
<glyph name="v" format="2">
  <advance width="856"/>
  <unicode hex="0076"/>
  <outline>
    <contour>
      <point x="0.0" y="1076.857142857143" type="line"/>
      <point x="127.26176470589499" y="1076.857142857143" type="line"/>
      <point x="385.99985994399026" y="295.83160597571236" type="line" smooth="yes"/>
      <point x="404" y="242"/>
      <point x="415" y="211"/>
      <point x="425.56741363214763" y="138.36479925303595" type="curve"/>
      <point x="432.2840802988143" y="138.36479925303595" type="line"/>
      <point x="442" y="211"/>
      <point x="455" y="242"/>
      <point x="471.8516339869" y="295.83160597571236" type="curve" smooth="yes"/>
      <point x="732.2771241830417" y="1076.857142857143" type="line"/>
      <point x="855.3715686274383" y="1076.857142857143" type="line"/>
      <point x="480.2385032679767" y="0.0" type="line"/>
      <point x="375.663398692795" y="0.0" type="line"/>
    </contour>
  </outline>
</glyph>
<glyph name="braceleft" format="2">
  <advance width="626"/>
  <unicode hex="007B"/>
  <outline>
    <contour>
      <point x="579.0364836601167" y="-312.0" type="line"/>
      <point x="325" y="-312"/>
      <point x="167" y="-136"/>
      <point x="226.54467973857334" y="116.08993464053833" type="curve" smooth="yes"/>
      <point x="275.01633986928664" y="333.01633986928664" type="line" smooth="yes"/>
      <point x="311" y="493"/>
      <point x="215" y="529"/>
      <point x="72.86841830065501" y="528.6430065359534" type="curve"/>
      <point x="72.86841830065501" y="619.3569934640466" type="line"/>
      <point x="215" y="619"/>
      <point x="311" y="655"/>
      <point x="275.01633986928664" y="814.9836601307134" type="curve" smooth="yes"/>
      <point x="226.54467973857334" y="1031.9100653594617" type="line" smooth="yes"/>
      <point x="167" y="1284"/>
      <point x="325" y="1460"/>
      <point x="579.0364836601167" y="1460.0" type="curve"/>
      <point x="579.0364836601167" y="1363.08334640524" type="line"/>
      <point x="384" y="1363"/>
      <point x="287" y="1251"/>
      <point x="339.49448366011666" y="1030.9264052287483" type="curve" smooth="yes"/>
      <point x="388.4579738561867" y="814.0" type="line" smooth="yes"/>
      <point x="415" y="702"/>
      <point x="368" y="611"/>
      <point x="237.19062745094664" y="574.0" type="curve"/>
      <point x="368" y="537"/>
      <point x="414" y="446"/>
      <point x="388.4579738561867" y="334.0" type="curve" smooth="yes"/>
      <point x="339.49448366011666" y="117.07359477125166" type="line" smooth="yes"/>
      <point x="287" y="-103"/>
      <point x="384" y="-215"/>
      <point x="579.0364836601167" y="-215.08334640524" type="curve"/>
    </contour>
  </outline>
</glyph>
<glyph name="braceright" format="2">
  <advance width="626"/>
  <unicode hex="007D"/>
  <outline>
    <contour>
      <point x="46.92966013071333" y="-312.0" type="curve"/>
      <point x="46.92966013071333" y="-215.08334640524" type="line"/>
      <point x="242" y="-215"/>
      <point x="339" y="-103"/>
      <point x="286.4716601307133" y="117.07359477125166" type="curve" smooth="yes"/>
      <point x="238.0" y="334.0" type="line" smooth="yes"/>
      <point x="212" y="446"/>
      <point x="258" y="537"/>
      <point x="389.26734640524" y="574.0" type="curve"/>
      <point x="258" y="611"/>
      <point x="212" y="702"/>
      <point x="238.0" y="814.0" type="curve" smooth="yes"/>
      <point x="286.4716601307133" y="1030.9264052287483" type="line" smooth="yes"/>
      <point x="339" y="1251"/>
      <point x="242" y="1363"/>
      <point x="46.92966013071333" y="1363.08334640524" type="curve"/>
      <point x="46.92966013071333" y="1460.0" type="line"/>
      <point x="301" y="1460"/>
      <point x="461" y="1284"/>
      <point x="399.9132941176133" y="1031.9100653594617" type="curve" smooth="yes"/>
      <point x="350.9498039215433" y="814.9836601307134" type="line" smooth="yes"/>
      <point x="315" y="655"/>
      <point x="411" y="619"/>
      <point x="553.5895555555317" y="619.3569934640466" type="curve"/>
      <point x="553.5895555555317" y="528.6430065359534" type="line"/>
      <point x="411" y="529"/>
      <point x="315" y="493"/>
      <point x="350.9498039215433" y="333.01633986928664" type="curve" smooth="yes"/>
      <point x="399.9132941176133" y="116.08993464053833" type="line" smooth="yes"/>
      <point x="461" y="-136"/>
      <point x="301" y="-312"/>
    </contour>
  </outline>
</glyph>
<glyph name="copyright" format="2">
  <advance width="1541"/>
  <unicode hex="00A9"/>
  <guideline x="0" y="901.0" angle="0" identifier="0Pjz0qKr8z"/>
  <guideline x="0" y="555.0" angle="0" identifier="sJo8BlDiJ7"/>
  <outline>
    <contour>
      <point x="981.05" y="529.5166666666667" type="curve"/>
      <point x="1092.8166666666666" y="529.5166666666667" type="line"/>
      <point x="1093" y="356"/>
      <point x="1016" y="205"/>
      <point x="777.25" y="205.0" type="curve" smooth="yes"/>
      <point x="535" y="205"/>
      <point x="423" y="395"/>
      <point x="422.96666666666664" y="670.45" type="curve" smooth="yes"/>
      <point x="422.96666666666664" y="701.5666666666667" type="line" smooth="yes"/>
      <point x="423" y="982"/>
      <point x="545" y="1169"/>
      <point x="782.0666666666667" y="1168.5666666666666" type="curve" smooth="yes"/>
      <point x="985" y="1169"/>
      <point x="1093" y="1036"/>
      <point x="1093.1" y="844.05" type="curve"/>
      <point x="981.3333333333334" y="844.05" type="line"/>
      <point x="981" y="966"/>
      <point x="920" y="1070"/>
      <point x="781.7833333333333" y="1070.5" type="curve" smooth="yes"/>
      <point x="621" y="1070"/>
      <point x="541" y="925"/>
      <point x="541.4333333333333" y="714.0333333333333" type="curve" smooth="yes"/>
      <point x="541.4333333333333" y="658.2666666666667" type="line" smooth="yes"/>
      <point x="541" y="447"/>
      <point x="620" y="301"/>
      <point x="784.3333333333334" y="301.0833333333333" type="curve" smooth="yes"/>
      <point x="915" y="301"/>
      <point x="981" y="403"/>
    </contour>
    <contour>
      <point x="147.68333333333334" y="687.0" type="curve" smooth="yes"/>
      <point x="148" y="268"/>
      <point x="381" y="-37"/>
      <point x="771.4666666666667" y="-36.85" type="curve" smooth="yes"/>
      <point x="1161" y="-37"/>
      <point x="1394" y="268"/>
      <point x="1393.5333333333333" y="687.0" type="curve" smooth="yes"/>
      <point x="1394" y="1106"/>
      <point x="1161" y="1409"/>
      <point x="771.4666666666667" y="1408.5666666666666" type="curve" smooth="yes"/>
      <point x="381" y="1409"/>
      <point x="148" y="1106"/>
    </contour>
    <contour>
      <point x="41.96666666666667" y="687.0" type="curve" smooth="yes"/>
      <point x="42" y="1159"/>
      <point x="334" y="1512"/>
      <point x="770.4666666666667" y="1511.8333333333333" type="curve" smooth="yes"/>
      <point x="1206" y="1512"/>
      <point x="1499" y="1159"/>
      <point x="1498.9666666666667" y="687.0" type="curve" smooth="yes"/>
      <point x="1499" y="218"/>
      <point x="1206" y="-140"/>
      <point x="770.4666666666667" y="-139.83333333333334" type="curve" smooth="yes"/>
      <point x="334" y="-140"/>
      <point x="42" y="218"/>
    </contour>
  </outline>
</glyph>
<glyph name="twosuperior" format="2">
  <advance width="642"/>
  <unicode hex="00B2"/>
  <outline>
    <contour>
      <point x="91.86666666666667" y="697.0" type="line"/>
      <point x="91.86666666666667" y="790.6666666666666" type="line"/>
      <point x="286.48333333333335" y="1036.6166666666666" type="line" smooth="yes"/>
      <point x="366" y="1133"/>
      <point x="440" y="1193"/>
      <point x="439.95" y="1267.6333333333334" type="curve" smooth="yes"/>
      <point x="440" y="1344"/>
      <point x="396" y="1397"/>
      <point x="314.05" y="1396.7666666666667" type="curve" smooth="yes"/>
      <point x="217" y="1397"/>
      <point x="171" y="1341"/>
      <point x="173.46666666666667" y="1219.5" type="curve"/>
      <point x="74.58333333333333" y="1219.5" type="line"/>
      <point x="72" y="1405"/>
      <point x="156" y="1487"/>
      <point x="311.48333333333335" y="1487.0" type="curve" smooth="yes"/>
      <point x="466" y="1487"/>
      <point x="544" y="1410"/>
      <point x="543.9833333333333" y="1268.2" type="curve" smooth="yes"/>
      <point x="544" y="1177"/>
      <point x="463" y="1080"/>
      <point x="341.98333333333335" y="951.65" type="curve" smooth="yes"/>
      <point x="206.76666666666665" y="794.8333333333334" type="line"/>
      <point x="567.8166666666666" y="794.8333333333334" type="line"/>
      <point x="567.8166666666666" y="697.0" type="line"/>
    </contour>
  </outline>
</glyph>
<glyph name="micro" format="2">
  <advance width="1064"/>
  <unicode hex="00B5"/>
  <outline>
    <contour>
      <point x="275.7" y="1052.0" type="line"/>
      <point x="381.5" y="1052.0" type="line"/>
      <point x="249.5" y="371.0" type="line" smooth="yes"/>
      <point x="213" y="184"/>
      <point x="243" y="84"/>
      <point x="362.23333333333335" y="83.68333333333334" type="curve" smooth="yes"/>
      <point x="464" y="84"/>
      <point x="558" y="144"/>
      <point x="670.7666666666667" y="308.0" type="curve"/>
      <point x="814.7666666666667" y="1052.0" type="line"/>
      <point x="929.1" y="1052.0" type="line"/>
      <point x="725.1" y="0.0" type="line"/>
      <point x="628.7666666666667" y="0.0" type="line"/>
      <point x="656.8" y="174.41666666666666" type="line"/>
      <point x="650.8" y="174.41666666666666" type="line"/>
      <point x="532" y="37"/>
      <point x="428" y="-20"/>
      <point x="345.81666666666666" y="-20.0" type="curve" smooth="yes"/>
      <point x="245" y="-20"/>
      <point x="192" y="30"/>
      <point x="199.11666666666667" y="109.36666666666667" type="curve"/>
      <point x="97.5" y="-416.0" type="line"/>
      <point x="-8.299999999999997" y="-416.0" type="line"/>
    </contour>
  </outline>
</glyph>
<glyph name="periodcentered" format="2">
  <advance width="478"/>
  <unicode hex="00B7"/>
  <outline>
    <contour>
      <point x="140.16666666666666" y="749.0" type="curve" smooth="yes"/>
      <point x="140" y="802"/>
      <point x="175" y="844"/>
      <point x="239.08333333333334" y="844.35" type="curve" smooth="yes"/>
      <point x="303" y="844"/>
      <point x="337" y="802"/>
      <point x="337.2833333333333" y="749.0" type="curve" smooth="yes"/>
      <point x="337" y="696"/>
      <point x="303" y="654"/>
      <point x="239.08333333333334" y="653.65" type="curve" smooth="yes"/>
      <point x="175" y="654"/>
      <point x="140" y="696"/>
    </contour>
  </outline>
</glyph>
<glyph name="ae" format="2">
  <advance width="1347"/>
  <unicode hex="00E6"/>
  <outline>
    <contour>
      <point x="197.23333333333335" y="287.85" type="curve" smooth="yes"/>
      <point x="197" y="139"/>
      <point x="257" y="76"/>
      <point x="371.18333333333334" y="75.71666666666667" type="curve" smooth="yes"/>
      <point x="492" y="76"/>
      <point x="614" y="172"/>
      <point x="614.1833333333334" y="325.4" type="curve" smooth="yes"/>
      <point x="614.1833333333334" y="523.15" type="line"/>
      <point x="435.51666666666665" y="523.15" type="line" smooth="yes"/>
      <point x="281" y="523"/>
      <point x="197" y="456"/>
    </contour>
    <contour>
      <point x="90.0" y="301.3666666666667" type="curve" smooth="yes"/>
      <point x="90" y="502"/>
      <point x="211" y="611"/>
      <point x="418.0" y="611.4666666666667" type="curve" smooth="yes"/>
      <point x="614.1833333333334" y="611.4666666666667" type="line"/>
      <point x="614.1833333333334" y="720.0" type="line" smooth="yes"/>
      <point x="614" y="880"/>
      <point x="567" y="986"/>
      <point x="435.51666666666665" y="986.2833333333333" type="curve" smooth="yes"/>
      <point x="305" y="986"/>
      <point x="253" y="886"/>
      <point x="252.56666666666666" y="770.0" type="curve" smooth="yes"/>
      <point x="252.56666666666666" y="765.0" type="line"/>
      <point x="147.76666666666668" y="765.0" type="line"/>
      <point x="147.76666666666668" y="770.0" type="line" smooth="yes"/>
      <point x="148" y="955"/>
      <point x="254" y="1082"/>
      <point x="440.16666666666663" y="1082.0" type="curve" smooth="yes"/>
      <point x="522" y="1082"/>
      <point x="613" y="1073"/>
      <point x="690.3" y="958.0166666666667" type="curve"/>
      <point x="794" y="1059"/>
      <point x="894" y="1082"/>
      <point x="970.25" y="1082.0" type="curve" smooth="yes"/>
      <point x="1178" y="1082"/>
      <point x="1293" y="922"/>
      <point x="1293.1" y="560.0" type="curve" smooth="yes"/>
      <point x="1293.1" y="510.5" type="line"/>
      <point x="671.2166666666667" y="510.5" type="line"/>
      <point x="671.2166666666667" y="605.5" type="line"/>
      <point x="1184.5833333333333" y="605.5" type="line"/>
      <point x="1183.8" y="617.7" type="line" smooth="yes"/>
      <point x="1185" y="851"/>
      <point x="1121" y="984"/>
      <point x="972.6" y="983.7166666666667" type="curve" smooth="yes"/>
      <point x="810" y="984"/>
      <point x="727" y="854"/>
      <point x="727.1166666666667" y="574.0" type="curve" smooth="yes"/>
      <point x="727.1166666666667" y="478.0" type="line" smooth="yes"/>
      <point x="727" y="211"/>
      <point x="801" y="68"/>
      <point x="986.0333333333333" y="68.28333333333333" type="curve" smooth="yes"/>
      <point x="1099" y="68"/>
      <point x="1157" y="127"/>
      <point x="1210.2333333333333" y="209.48333333333332" type="curve"/>
      <point x="1299.6833333333334" y="160.21666666666667" type="line"/>
      <point x="1239" y="42"/>
      <point x="1138" y="-30"/>
      <point x="996.7" y="-30.0" type="curve" smooth="yes"/>
      <point x="839" y="-30"/>
      <point x="745" y="52"/>
      <point x="679.8" y="172.58333333333331" type="curve"/>
      <point x="588" y="41"/>
      <point x="469" y="-20"/>
      <point x="354.05" y="-20.0" type="curve" smooth="yes"/>
      <point x="197" y="-20"/>
      <point x="90" y="69"/>
    </contour>
  </outline>
</glyph>
<glyph name="eth" format="2">
  <advance width="903"/>
  <unicode hex="00F0"/>
  <outline>
    <contour>
      <point x="188.53333333333333" y="1488.3" type="curve"/>
      <point x="220.83333333333334" y="1581.0" type="line"/>
      <point x="636.144" y="1476.6139999999998"/>
      <point x="817.7" y="1148.3416666666667"/>
      <point x="817.7" y="633.0" type="curve"/>
      <point x="817.7" y="535.0" type="line"/>
      <point x="817.7" y="209.2013333333333"/>
      <point x="697.22" y="-20.0"/>
      <point x="455.35" y="-20.0" type="curve" smooth="yes"/>
      <point x="206.60133333333334" y="-20.0"/>
      <point x="85.0" y="186.3766666666666"/>
      <point x="85.0" y="468.0" type="curve" smooth="yes"/>
      <point x="85.0" y="769.4776666666667"/>
      <point x="199.4463333333333" y="978.0"/>
      <point x="430.2166666666667" y="978.0" type="curve" smooth="yes"/>
      <point x="656.6766666666667" y="978.0"/>
      <point x="774.0166666666667" y="793.9"/>
      <point x="774.0166666666667" y="613.0" type="curve"/>
      <point x="706.45" y="614.0" type="line"/>
      <point x="706.45" y="785.6763333333333"/>
      <point x="568.6876666666667" y="879.7166666666667"/>
      <point x="450.56666666666666" y="879.7166666666667" type="curve" smooth="yes"/>
      <point x="270.2919999999999" y="879.7166666666667"/>
      <point x="196.15" y="708.8873333333333"/>
      <point x="196.15" y="468.0" type="curve" smooth="yes"/>
      <point x="196.15" y="251.322"/>
      <point x="272.3306666666666" y="66.9"/>
      <point x="459.35" y="66.9" type="curve" smooth="yes"/>
      <point x="633.751" y="66.9"/>
      <point x="705.8333333333334" y="271.8686666666666"/>
      <point x="705.8333333333334" y="535.0" type="curve" smooth="yes"/>
      <point x="705.8333333333334" y="635.0" type="line" smooth="yes"/>
      <point x="705.8333333333334" y="1103.665"/>
      <point x="574.0066666666667" y="1385.9463333333335"/>
    </contour>
    <contour>
      <point x="717.8166666666666" y="1427.0" type="line"/>
      <point x="329.76666666666665" y="1089.6666666666667" type="line"/>
      <point x="273.2833333333333" y="1171.6833333333334" type="line"/>
      <point x="662.05" y="1508.7333333333333" type="line"/>
    </contour>
  </outline>
</glyph>
<glyph name="thorn" format="2">
  <advance width="925"/>
  <unicode hex="00FE"/>
  <outline>
    <contour>
      <point x="153.73333333333332" y="-416.0" type="line"/>
      <point x="153.73333333333332" y="1536.0" type="line"/>
      <point x="248.13333333333333" y="1536.0" type="line"/>
      <point x="248.13333333333333" y="917.2333333333333" type="line"/>
      <point x="294.0283333333333" y="998.147"/>
      <point x="399.397" y="1072.0"/>
      <point x="517.25" y="1072.0" type="curve" smooth="yes"/>
      <point x="720.796" y="1072.0"/>
      <point x="840.3333333333334" y="850.2"/>
      <point x="840.3333333333334" y="542.0" type="curve" smooth="yes"/>
      <point x="840.3333333333334" y="510.0" type="line" smooth="yes"/>
      <point x="840.3333333333334" y="201.79999999999995"/>
      <point x="720.796" y="-20.0"/>
      <point x="517.25" y="-20.0" type="curve" smooth="yes"/>
      <point x="399.397" y="-20.0"/>
      <point x="312.69466666666665" y="24.867333333333335"/>
      <point x="252.35" y="109.6" type="curve"/>
      <point x="255.48333333333335" y="109.6" type="line"/>
      <point x="261.75" y="-416.0" type="line"/>
    </contour>
    <contour>
      <point x="260.9666666666667" y="228.45" type="line"/>
      <point x="289.66499999999996" y="166.073"/>
      <point x="361.93199999999996" y="78.28333333333333"/>
      <point x="488.3833333333333" y="78.28333333333333" type="curve" smooth="yes"/>
      <point x="651.372" y="78.28333333333333"/>
      <point x="730.5333333333333" y="232.89166666666662"/>
      <point x="730.5333333333333" y="478.0" type="curve" smooth="yes"/>
      <point x="730.5333333333333" y="574.0" type="line" smooth="yes"/>
      <point x="730.5333333333333" y="819.1083333333333"/>
      <point x="653.8466666666667" y="973.7166666666667"/>
      <point x="493.7166666666667" y="973.7166666666667" type="curve" smooth="yes"/>
      <point x="377.27066666666667" y="973.7166666666667"/>
      <point x="293.953" y="895.2283333333334"/>
      <point x="260.9666666666667" y="821.4166666666666" type="curve"/>
    </contour>
  </outline>
</glyph>
<glyph name="oe" format="2">
  <advance width="1441"/>
  <unicode hex="0153"/>
  <outline>
    <contour>
      <point x="194.08333333333331" y="574.0" type="curve" smooth="yes"/>
      <point x="194.08333333333331" y="478.0" type="line" smooth="yes"/>
      <point x="194.08333333333331" y="228.8716666666666"/>
      <point x="281.10766666666666" y="68.28333333333333"/>
      <point x="451.5333333333333" y="68.28333333333333" type="curve" smooth="yes"/>
      <point x="621.9590000000001" y="68.28333333333333"/>
      <point x="710.05" y="229.92133333333334"/>
      <point x="710.05" y="478.0" type="curve" smooth="yes"/>
      <point x="710.05" y="574.0" type="line" smooth="yes"/>
      <point x="710.05" y="829.2253333333334"/>
      <point x="630.5350000000001" y="983.7166666666667"/>
      <point x="451.5333333333333" y="983.7166666666667" type="curve" smooth="yes"/>
      <point x="272.53166666666664" y="983.7166666666667"/>
      <point x="194.08333333333331" y="823.1283333333333"/>
    </contour>
    <contour>
      <point x="766.0166666666667" y="868.8666666666667" type="curve"/>
      <point x="865.9136666666666" y="1047.913"/>
      <point x="959.03" y="1082.0"/>
      <point x="1038.9833333333333" y="1082.0" type="curve" smooth="yes"/>
      <point x="1276.1633333333334" y="1082.0"/>
      <point x="1383.7666666666667" y="921.7106666666666"/>
      <point x="1383.7666666666667" y="560.0" type="curve" smooth="yes"/>
      <point x="1383.7666666666667" y="510.5" type="line"/>
      <point x="761.8833333333333" y="510.5" type="line"/>
      <point x="761.8833333333333" y="605.5" type="line"/>
      <point x="1275.25" y="605.5" type="line"/>
      <point x="1274.4666666666667" y="617.7" type="line" smooth="yes"/>
      <point x="1275.5163333333333" y="850.5696666666666"/>
      <point x="1214.4226666666664" y="983.7166666666667"/>
      <point x="1054.65" y="983.7166666666667" type="curve" smooth="yes"/>
      <point x="903.4533333333331" y="983.7166666666667"/>
      <point x="817.7833333333333" y="852.586"/>
      <point x="817.7833333333333" y="574.0" type="curve" smooth="yes"/>
      <point x="817.7833333333333" y="478.0" type="line" smooth="yes"/>
      <point x="817.7833333333333" y="211.80900000000003"/>
      <point x="899.725" y="68.28333333333333"/>
      <point x="1084.5333333333333" y="68.28333333333333" type="curve" smooth="yes"/>
      <point x="1197.0486666666666" y="68.28333333333333"/>
      <point x="1247.7243333333333" y="126.67133333333334"/>
      <point x="1300.9" y="209.48333333333332" type="curve"/>
      <point x="1390.35" y="160.21666666666667" type="line"/>
      <point x="1330.05" y="42.16266666666667"/>
      <point x="1234.1956666666667" y="-30.0"/>
      <point x="1070.9166666666665" y="-30.0" type="curve" smooth="yes"/>
      <point x="972.65" y="-30.0"/>
      <point x="855.5233333333333" y="18.831999999999994"/>
      <point x="763.7333333333333" y="182.13333333333333" type="curve"/>
      <point x="669.5536666666667" y="17.782333333333327"/>
      <point x="551.0113333333334" y="-30.0"/>
      <point x="475.0333333333333" y="-30.0" type="curve" smooth="yes"/>
      <point x="219.56233333333333" y="-30.0"/>
      <point x="85.0" y="162.49333333333328"/>
      <point x="85.0" y="510.0" type="curve" smooth="yes"/>
      <point x="85.0" y="542.0" type="line" smooth="yes"/>
      <point x="85.0" y="889.5066666666667"/>
      <point x="225.40599999999992" y="1082.7833333333333"/>
      <point x="460.93333333333334" y="1082.7833333333333" type="curve" smooth="yes"/>
      <point x="546.3583333333335" y="1082.7833333333333"/>
      <point x="661.8093333333334" y="1053.1613333333332"/>
    </contour>
  </outline>
</glyph>
<glyph name="ring" format="2">
  <advance width="1024"/>
  <unicode hex="02DA"/>
  <outline>
    <contour>
      <point x="295.31666666666666" y="1389.7166666666667" type="curve"/>
      <point x="295.31666666666666" y="1509.3563333333334"/>
      <point x="393.4363333333333" y="1608.4333333333334"/>
      <point x="513.4333333333333" y="1608.4333333333334" type="curve" smooth="yes"/>
      <point x="632.6709999999999" y="1608.4333333333334"/>
      <point x="729.4" y="1509.3563333333334"/>
      <point x="729.4" y="1389.7166666666667" type="curve" smooth="yes"/>
      <point x="729.4" y="1268.737"/>
      <point x="632.6709999999999" y="1174.2833333333333"/>
      <point x="513.4333333333333" y="1174.2833333333333" type="curve" smooth="yes"/>
      <point x="393.4363333333333" y="1174.2833333333333"/>
      <point x="295.31666666666666" y="1268.737"/>
    </contour>
    <contour>
      <point x="381.6666666666667" y="1389.7166666666667" type="curve"/>
      <point x="381.6666666666667" y="1317.3120000000001"/>
      <point x="440.29166666666674" y="1259.6666666666667"/>
      <point x="513.4333333333333" y="1259.6666666666667" type="curve" smooth="yes"/>
      <point x="587.5353333333334" y="1259.6666666666667"/>
      <point x="642.3333333333334" y="1316.5526666666665"/>
      <point x="642.3333333333334" y="1389.7166666666667" type="curve" smooth="yes"/>
      <point x="642.3333333333334" y="1463.841"/>
      <point x="587.5353333333334" y="1522.7666666666667"/>
      <point x="513.4333333333333" y="1522.7666666666667" type="curve" smooth="yes"/>
      <point x="440.29166666666674" y="1522.7666666666667"/>
      <point x="381.6666666666667" y="1463.841"/>
    </contour>
  </outline>
</glyph>
<glyph name="Theta" format="2">
  <advance width="1262"/>
  <unicode hex="0398"/>
  <outline>
    <contour>
      <point x="617.1833333333334" y="-30.0" type="curve" smooth="yes"/>
      <point x="315.9513333333333" y="-30.0"/>
      <point x="115.0" y="197.59766666666667"/>
      <point x="115.0" y="692.75" type="curve" smooth="yes"/>
      <point x="115.0" y="763.25" type="line" smooth="yes"/>
      <point x="115.0" y="1258.4023333333334"/>
      <point x="314.991" y="1486.0"/>
      <point x="617.1833333333334" y="1486.0" type="curve" smooth="yes"/>
      <point x="919.3756666666668" y="1486.0"/>
      <point x="1119.0166666666667" y="1258.4023333333334"/>
      <point x="1119.0166666666667" y="763.25" type="curve" smooth="yes"/>
      <point x="1119.0166666666667" y="692.75" type="line" smooth="yes"/>
      <point x="1119.0166666666667" y="197.59766666666667"/>
      <point x="919.3756666666668" y="-30.0"/>
    </contour>
    <contour>
      <point x="617.1833333333334" y="75.63333333333333" type="curve" smooth="yes"/>
      <point x="857.2666666666667" y="75.63333333333333"/>
      <point x="1002.35" y="260.1123333333333"/>
      <point x="1002.35" y="660.75" type="curve" smooth="yes"/>
      <point x="1002.35" y="796.3166666666666" type="line" smooth="yes"/>
      <point x="1002.35" y="1196.9543333333334"/>
      <point x="857.2666666666667" y="1380.3666666666666"/>
      <point x="617.1833333333334" y="1380.3666666666666" type="curve" smooth="yes"/>
      <point x="378.06033333333335" y="1380.3666666666666"/>
      <point x="230.60000000000002" y="1196.9543333333334"/>
      <point x="230.60000000000002" y="796.3166666666666" type="curve" smooth="yes"/>
      <point x="230.60000000000002" y="660.75" type="line" smooth="yes"/>
      <point x="230.60000000000002" y="260.1123333333333"/>
      <point x="378.06033333333335" y="75.63333333333333"/>
    </contour>
    <contour>
      <point x="338.45" y="673.3333333333334" type="line"/>
      <point x="338.45" y="791.1666666666666" type="line"/>
      <point x="894.5" y="791.1666666666666" type="line"/>
      <point x="894.5" y="673.3333333333334" type="line"/>
    </contour>
  </outline>
</glyph>
<glyph name="Sigma" format="2">
  <advance width="948"/>
  <unicode hex="03A3"/>
  <outline>
    <contour>
      <point x="-7" y="0" type="line"/>
      <point x="-7" y="72" type="line"/>
      <point x="408" y="751" type="line"/>
      <point x="408" y="704" type="line"/>
      <point x="18" y="1362" type="line"/>
      <point x="18" y="1456" type="line"/>
      <point x="920" y="1456" type="line"/>
      <point x="920" y="1353" type="line"/>
      <point x="128" y="1353" type="line"/>
      <point x="143" y="1372" type="line"/>
      <point x="505" y="760" type="line"/>
      <point x="505" y="729" type="line"/>
      <point x="114" y="84" type="line"/>
      <point x="115" y="103" type="line"/>
      <point x="957" y="103" type="line"/>
      <point x="957" y="0" type="line"/>
    </contour>
  </outline>
</glyph>
<glyph name="Psi" format="2">
  <advance width="1461"/>
  <unicode hex="03A8"/>
  <outline>
    <contour>
      <point x="673" y="0" type="line"/>
      <point x="673" y="1456" type="line"/>
      <point x="788" y="1456" type="line"/>
      <point x="788" y="0" type="line"/>
    </contour>
    <contour>
      <point x="705" y="361" type="line"/>
      <point x="694" y="361" type="line" smooth="yes"/>
      <point x="305" y="361"/>
      <point x="155" y="535"/>
      <point x="155" y="928" type="curve" smooth="yes"/>
      <point x="155" y="1456" type="line"/>
      <point x="269" y="1456" type="line"/>
      <point x="269" y="926" type="line" smooth="yes"/>
      <point x="269" y="550"/>
      <point x="432" y="471"/>
      <point x="693" y="471" type="curve" smooth="yes"/>
      <point x="705" y="471" type="line"/>
    </contour>
    <contour>
      <point x="756" y="361" type="line"/>
      <point x="756" y="471" type="line"/>
      <point x="768" y="471" type="line" smooth="yes"/>
      <point x="1029" y="471"/>
      <point x="1192" y="550"/>
      <point x="1192" y="926" type="curve" smooth="yes"/>
      <point x="1192" y="1456" type="line"/>
      <point x="1306" y="1456" type="line"/>
      <point x="1306" y="928" type="line" smooth="yes"/>
      <point x="1306" y="535"/>
      <point x="1156" y="361"/>
      <point x="767" y="361" type="curve" smooth="yes"/>
    </contour>
  </outline>
</glyph>
<glyph name="alpha" format="2">
  <advance width="1050"/>
  <unicode hex="03B1"/>
  <anchor x="494.1595238095238" y="1076.857142857143" name="GRK_top"/>
  <outline>
    <contour>
      <point x="450.0" y="-20.0" type="curve" smooth="yes"/>
      <point x="219.587" y="-20.0"/>
      <point x="85.0" y="206.04285714285714"/>
      <point x="85.0" y="522.8571428571429" type="curve" smooth="yes"/>
      <point x="85.0" y="554.0" type="line" smooth="yes"/>
      <point x="85.0" y="872.2659523809525"/>
      <point x="220.0543333333333" y="1096.857142857143"/>
      <point x="451.45" y="1096.857142857143" type="curve" smooth="yes"/>
      <point x="581.3406666666667" y="1096.857142857143"/>
      <point x="688.396" y="1042.8601428571428"/>
      <point x="755.0833333333334" y="945.1071428571429" type="curve"/>
      <point x="756.0833333333333" y="945.1071428571429" type="line"/>
      <point x="759.4333333333333" y="1076.857142857143" type="line"/>
      <point x="864.7666666666667" y="1076.857142857143" type="line"/>
      <point x="864.7666666666667" y="189.06666666666666" type="line" smooth="yes"/>
      <point x="864.7666666666667" y="91.42533333333333"/>
      <point x="890.971" y="79.46666666666667"/>
      <point x="937.0" y="79.46666666666667" type="curve" smooth="yes"/>
      <point x="958.5293333333333" y="79.46666666666667"/>
      <point x="980.9889999999999" y="85.87"/>
      <point x="999.95" y="95.25" type="curve"/>
      <point x="999.95" y="-1.9833333333333343" type="line"/>
      <point x="979.7383333333333" y="-13.083000000000002"/>
      <point x="926.0703333333333" y="-19.333333333333336"/>
      <point x="899.65" y="-19.333333333333336" type="curve"/>
      <point x="827.0889999999999" y="-19.333333333333336"/>
      <point x="780.7969999999999" y="8.99833333333332"/>
      <point x="763.5333333333333" y="116.53333333333333" type="curve"/>
      <point x="761.8166666666666" y="116.53333333333333" type="line"/>
      <point x="707.1" y="46.65233333333332"/>
      <point x="620.0683333333333" y="-20.0"/>
    </contour>
    <contour>
      <point x="486.0333333333333" y="81.15" type="curve" smooth="yes"/>
      <point x="608.3530000000001" y="81.15"/>
      <point x="712.6049999999999" y="156.49199999999996"/>
      <point x="751.8" y="254.13333333333333" type="curve"/>
      <point x="751.8" y="836.2404761904762" type="line"/>
      <point x="726.6526666666666" y="898.9301428571429"/>
      <point x="647.777" y="995.7071428571428"/>
      <point x="484.9" y="995.7071428571428" type="curve" smooth="yes"/>
      <point x="304.15633333333335" y="995.7071428571428"/>
      <point x="199.1" y="862.6262857142858"/>
      <point x="199.1" y="590.3" type="curve"/>
      <point x="199.1" y="505.82380952380953" type="line" smooth="yes"/>
      <point x="199.1" y="222.46485714285717"/>
      <point x="287.0656666666667" y="81.15"/>
    </contour>
  </outline>
</glyph>
<glyph name="gamma" format="2">
  <advance width="856"/>
  <unicode hex="03B3"/>
  <outline>
    <contour>
      <point x="375.98333333333335" y="-366.0" type="line"/>
      <point x="375.98333333333335" y="19.178571428571427" type="line"/>
      <point x="0.0" y="1076.857142857143" type="line"/>
      <point x="127.68333333333334" y="1076.857142857143" type="line"/>
      <point x="383.26666666666665" y="302.747619047619" type="line" smooth="yes"/>
      <point x="418.04285714285714" y="203.69928571428574"/>
      <point x="424.3970476190476" y="162.70957142857145"/>
      <point x="425.4690476190476" y="133.9857142857143" type="curve"/>
      <point x="431.1190476190476" y="133.9857142857143" type="line"/>
      <point x="433.151380952381" y="162.70957142857145"/>
      <point x="446.3342380952381" y="219.73780952380955"/>
      <point x="474.3880952380952" y="302.747619047619" type="curve" smooth="yes"/>
      <point x="732.3333333333334" y="1076.857142857143" type="line"/>
      <point x="855.6666666666666" y="1076.857142857143" type="line"/>
      <point x="479.68333333333334" y="19.178571428571427" type="line"/>
      <point x="479.68333333333334" y="-366.0" type="line"/>
    </contour>
  </outline>
</glyph>
<glyph name="delta" format="2">
  <advance width="981"/>
  <unicode hex="03B4"/>
  <outline>
    <contour>
      <point x="491.4547619047619" y="-30.0" type="curve" smooth="yes"/>
      <point x="739.3770952380952" y="-30.0"/>
      <point x="901.9333333333334" y="168.75242857142854"/>
      <point x="901.9333333333334" y="452.37619047619046" type="curve" smooth="yes"/>
      <point x="901.9333333333334" y="465.29047619047617" type="line" smooth="yes"/>
      <point x="901.9333333333334" y="747.8581904761905"/>
      <point x="758.2943333333335" y="895.8290952380953"/>
      <point x="569.6" y="1023.6619047619048" type="curve" smooth="yes"/>
      <point x="374.27266666666674" y="1147.5768095238095"/>
      <point x="334.1166666666667" y="1196.0268571428571"/>
      <point x="334.1166666666667" y="1286.0238095238096" type="curve" smooth="yes"/>
      <point x="334.1166666666667" y="1388.3647142857142"/>
      <point x="395.9853333333333" y="1456.1166666666666"/>
      <point x="539.6333333333333" y="1456.1166666666666" type="curve"/>
      <point x="633.3663333333334" y="1456.1166666666666"/>
      <point x="723.4556666666666" y="1424.763"/>
      <point x="777.0333333333333" y="1377.4833333333333" type="curve"/>
      <point x="807.35" y="1481.2666666666667" type="line"/>
      <point x="746.2236666666666" y="1526.849"/>
      <point x="643.0063333333334" y="1556.0"/>
      <point x="539.0" y="1556.0" type="curve"/>
      <point x="332.86333333333323" y="1556.0"/>
      <point x="219.54333333333332" y="1441.0022857142858"/>
      <point x="220.88333333333333" y="1281.0190476190476" type="curve"/>
      <point x="219.54333333333332" y="1153.192619047619"/>
      <point x="299.36299999999994" y="1052.838238095238"/>
      <point x="553.5833333333334" y="916.8952380952381" type="curve" smooth="yes"/>
      <point x="688.1799523809524" y="835.7518571428571"/>
      <point x="787.9833333333333" y="692.1201904761905"/>
      <point x="787.9833333333333" y="462.9738095238095" type="curve" smooth="yes"/>
      <point x="787.9833333333333" y="445.1" type="line" smooth="yes"/>
      <point x="787.9833333333333" y="181.0976666666666"/>
      <point x="675.2618571428573" y="69.61666666666667"/>
      <point x="492.6166666666667" y="69.61666666666667" type="curve" smooth="yes"/>
      <point x="303.9893333333333" y="69.61666666666667"/>
      <point x="203.93333333333334" y="193.062"/>
      <point x="203.93333333333334" y="447.0047619047619" type="curve" smooth="yes"/>
      <point x="203.93333333333334" y="466.9952380952381" type="line" smooth="yes"/>
      <point x="203.93333333333334" y="711.8068571428571"/>
      <point x="325.066" y="881.5855714285715"/>
      <point x="508.33333333333337" y="919.2619047619048" type="curve"/>
      <point x="460.6166666666667" y="1009.0952380952381" type="line"/>
      <point x="220.15366666666668" y="940.755238095238"/>
      <point x="90.33333333333333" y="729.1508571428571"/>
      <point x="90.33333333333333" y="476.1333333333333" type="curve" smooth="yes"/>
      <point x="90.33333333333333" y="460.0190476190476" type="line" smooth="yes"/>
      <point x="90.33333333333333" y="148.2744285714286"/>
      <point x="241.27676190476188" y="-30.0"/>
    </contour>
  </outline>
</glyph>
<glyph name="zeta" format="2">
  <advance width="684"/>
  <unicode hex="03B6"/>
  <outline>
    <contour>
      <point x="506.9166666666667" y="-348.0" type="line"/>
      <point x="534.342" y="-262.2176666666667"/>
      <point x="541.1666666666666" y="-219.95933333333332"/>
      <point x="541.1666666666666" y="-165.6" type="curve" smooth="yes"/>
      <point x="541.1666666666666" y="-101.32466666666666"/>
      <point x="550.1653333333334" y="-57.17033333333333"/>
      <point x="380.7" y="0.5166666666666666" type="curve" smooth="yes"/>
      <point x="332.0333333333333" y="20.933333333333334" type="line" smooth="yes"/>
      <point x="141.17266666666666" y="92.69033333333334"/>
      <point x="58.0" y="181.83199999999997"/>
      <point x="58.0" y="340.6666666666667" type="curve" smooth="yes"/>
      <point x="58.0" y="528.2666666666667"/>
      <point x="159.99266666666668" y="720.3166666666666"/>
      <point x="297.7" y="969.3333333333334" type="curve" smooth="yes"/>
      <point x="599.3166666666666" y="1479.25" type="line"/>
      <point x="606.55" y="1430.5833333333333" type="line"/>
      <point x="58.116666666666674" y="1430.5833333333333" type="line"/>
      <point x="58.116666666666674" y="1536.0" type="line"/>
      <point x="698.8666666666667" y="1536.0" type="line"/>
      <point x="698.8666666666667" y="1444.15" type="line"/>
      <point x="402.35" y="921.7333333333333" type="line" smooth="yes"/>
      <point x="253.5876666666667" y="658.6689999999999"/>
      <point x="172.88333333333333" y="495.4003333333333"/>
      <point x="172.88333333333333" y="353.51666666666665" type="curve" smooth="yes"/>
      <point x="172.88333333333333" y="216.54633333333334"/>
      <point x="252.607" y="165.77866666666668"/>
      <point x="382.9666666666667" y="123.16666666666666" type="curve" smooth="yes"/>
      <point x="435.31666666666666" y="105.3" type="line" smooth="yes"/>
      <point x="636.8080000000001" y="36.82600000000001"/>
      <point x="651.2833333333333" y="-43.39"/>
      <point x="651.2833333333333" y="-129.15" type="curve"/>
      <point x="652.333" y="-204.19"/>
      <point x="634.3443333333332" y="-283.01"/>
      <point x="608.6833333333334" y="-348.0" type="curve"/>
    </contour>
  </outline>
</glyph>
<glyph name="eta" format="2">
  <advance width="982"/>
  <unicode hex="03B7"/>
  <anchor x="329.66666666666663" y="1076.857142857143" name="GRK_top"/>
  <outline>
    <contour>
      <point x="732.2166666666667" y="-564.2666666666667" type="line"/>
      <point x="732.2166666666667" y="746.8238095238096" type="line" smooth="yes"/>
      <point x="732.2166666666667" y="920.6441428571428"/>
      <point x="664.181" y="995.6404761904762"/>
      <point x="518.3666666666667" y="995.6404761904762" type="curve" smooth="yes"/>
      <point x="390.32966666666664" y="995.6404761904762"/>
      <point x="302.94933333333336" y="910.0234761904762"/>
      <point x="259.5333333333333" y="825.2238095238096" type="curve"/>
      <point x="259.5333333333333" y="0.0" type="line"/>
      <point x="148.0" y="0.0" type="line"/>
      <point x="148.0" y="1076.857142857143" type="line"/>
      <point x="251.9" y="1076.857142857143" type="line"/>
      <point x="255.25" y="936.3571428571429" type="line"/>
      <point x="255.53333333333333" y="936.3571428571429" type="line"/>
      <point x="327.71466666666663" y="1042.5074761904762"/>
      <point x="429.26733333333334" y="1096.857142857143"/>
      <point x="558.6666666666666" y="1096.857142857143" type="curve" smooth="yes"/>
      <point x="736.0156666666667" y="1096.857142857143"/>
      <point x="844.4666666666667" y="997.2214761904763"/>
      <point x="844.4666666666667" y="734.1571428571428" type="curve" smooth="yes"/>
      <point x="844.4666666666667" y="-564.2666666666667" type="line"/>
    </contour>
  </outline>
</glyph>
<glyph name="kappa" format="2">
  <advance width="821"/>
  <unicode hex="03BA"/>
  <outline>
    <contour>
      <point x="148.0" y="0.0" type="line"/>
      <point x="148.0" y="1076.857142857143" type="line"/>
      <point x="259.5333333333333" y="1076.857142857143" type="line"/>
      <point x="259.5333333333333" y="0.0" type="line"/>
    </contour>
    <contour>
      <point x="196.05238095238096" y="498.6404761904762" type="line"/>
      <point x="196.05238095238096" y="599.2071428571429" type="line"/>
      <point x="393.0857142857143" y="599.2071428571429" type="line"/>
      <point x="681.9190476190477" y="1076.857142857143" type="line"/>
      <point x="791.952380952381" y="1076.857142857143" type="line"/>
      <point x="450.2690476190476" y="498.6404761904762" type="line"/>
    </contour>
    <contour>
      <point x="707.5619047619048" y="0.0" type="line"/>
      <point x="389.81904761904764" y="502.04047619047617" type="line"/>
      <point x="468.7190476190476" y="583.6071428571429" type="line"/>
      <point x="829.0119047619048" y="0.0" type="line"/>
    </contour>
  </outline>
</glyph>
<glyph name="lambda" format="2">
  <advance width="867"/>
  <unicode hex="03BB"/>
  <outline>
    <contour>
      <point x="0.0" y="0.0" type="line"/>
      <point x="390" y="1065" type="line"/>
      <point x="355" y="1158" type="line" smooth="yes"/>
      <point x="267" y="1392"/>
      <point x="225" y="1450"/>
      <point x="113" y="1450" type="curve"/>
      <point x="72.0" y="1450.0"/>
      <point x="43.14009523809524" y="1437.439"/>
      <point x="25.828571428571426" y="1429.6" type="curve"/>
      <point x="25.828571428571426" y="1534.5666666666666" type="line"/>
      <point x="64.06642857142857" y="1549.8873333333333"/>
      <point x="97" y="1556.0"/>
      <point x="138" y="1556.0" type="curve"/>
      <point x="292" y="1556.0"/>
      <point x="363.82280952380955" y="1476.4723333333334"/>
      <point x="446.0190476190476" y="1252.0" type="curve" smooth="yes"/>
      <point x="877.8904761904762" y="0.0" type="line"/>
      <point x="742" y="0.0" type="line"/>
      <point x="491" y="777" type="line" smooth="yes"/>
      <point x="486" y="792"/>
      <point x="459" y="891"/>
      <point x="453" y="917" type="curve"/>
      <point x="448" y="917" type="line"/>
      <point x="439" y="885"/>
      <point x="425.7570476190477" y="843.0781904761905"/>
      <point x="404.4" y="776.7928571428572" type="curve" smooth="yes"/>
      <point x="125.91666666666666" y="0.0" type="line"/>
    </contour>
  </outline>
</glyph>
<glyph name="mu" format="2">
  <advance width="1037"/>
  <unicode hex="03BC"/>
  <outline>
    <contour>
      <point x="148.0" y="-416.0" type="line"/>
      <point x="148.0" y="1077" type="line"/>
      <point x="260" y="1077" type="line"/>
      <point x="260" y="208" type="line"/>
      <point x="279" y="132"/>
      <point x="344" y="82"/>
      <point x="474" y="82" type="curve" smooth="yes"/>
      <point x="642" y="82"/>
      <point x="732" y="175"/>
      <point x="732" y="343" type="curve" smooth="yes"/>
      <point x="732" y="1077" type="line"/>
      <point x="844" y="1077" type="line"/>
      <point x="844" y="189" type="line" smooth="yes"/>
      <point x="844.0" y="91.0"/>
      <point x="870" y="79"/>
      <point x="919" y="79" type="curve" smooth="yes"/>
      <point x="936" y="79"/>
      <point x="963" y="86"/>
      <point x="980" y="95" type="curve"/>
      <point x="980" y="-2" type="line"/>
      <point x="960" y="-13"/>
      <point x="903" y="-19"/>
      <point x="879" y="-19" type="curve" smooth="yes"/>
      <point x="804" y="-19"/>
      <point x="755" y="11"/>
      <point x="742" y="136" type="curve"/>
      <point x="740" y="136" type="line"/>
      <point x="697" y="66"/>
      <point x="607" y="-20"/>
      <point x="464" y="-20" type="curve" smooth="yes"/>
      <point x="373" y="-20"/>
      <point x="299" y="23"/>
      <point x="260" y="77" type="curve"/>
      <point x="260" y="-416.0" type="line"/>
    </contour>
  </outline>
</glyph>
<glyph name="xi" format="2">
  <advance width="689"/>
  <unicode hex="03BE"/>
  <outline>
    <contour>
      <point x="518.25" y="-348.0" type="line"/>
      <point x="541.8563333333334" y="-280.8213333333333"/>
      <point x="552.5" y="-218.74099999999999"/>
      <point x="552.5" y="-169.18333333333334" type="curve" smooth="yes"/>
      <point x="552.5" y="-94.83566666666667"/>
      <point x="544.6771904761904" y="-59.6784761904762"/>
      <point x="424.8333333333333" y="-10.883333333333333" type="curve" smooth="yes"/>
      <point x="345.31904761904764" y="24.204761904761902" type="line" smooth="yes"/>
      <point x="183.44704761904762" y="98.26528571428571"/>
      <point x="84.91066666666667" y="173.6589523809524"/>
      <point x="85.0" y="393.1190476190476" type="curve" smooth="yes"/>
      <point x="85.0" y="602.4525714285714"/>
      <point x="175.0403333333333" y="734.0054285714285"/>
      <point x="347.8333333333333" y="778.5380952380953" type="curve"/>
      <point x="348.8309523809524" y="760.5380952380953" type="line"/>
      <point x="217.50776190476188" y="800.9295238095237"/>
      <point x="123.4" y="904.9482380952381"/>
      <point x="123.4" y="1077.4285714285713" type="curve" smooth="yes"/>
      <point x="123.4" y="1252.8569047619048"/>
      <point x="237.58166666666665" y="1406.288857142857"/>
      <point x="404.3" y="1432.6166666666666" type="curve"/>
      <point x="404.3" y="1430.5833333333333" type="line"/>
      <point x="89.93333333333334" y="1430.5833333333333" type="line"/>
      <point x="89.93333333333334" y="1536.0" type="line"/>
      <point x="698.8" y="1536.0" type="line"/>
      <point x="698.8" y="1437.5833333333333" type="line"/>
      <point x="333.9371428571429" y="1414.0344285714286"/>
      <point x="229.7" y="1289.1300952380955"/>
      <point x="229.7" y="1070.595238095238" type="curve" smooth="yes"/>
      <point x="229.7" y="930.9225714285714"/>
      <point x="323.4683333333333" y="827.494761904762"/>
      <point x="504.0333333333333" y="825.197619047619" type="curve" smooth="yes"/>
      <point x="652.8" y="825.197619047619" type="line"/>
      <point x="652.8" y="719.7809523809524" type="line"/>
      <point x="504.0333333333333" y="719.7809523809524" type="line" smooth="yes"/>
      <point x="287.9806666666667" y="719.7809523809524"/>
      <point x="199.1" y="615.8315714285715"/>
      <point x="199.1" y="401.7857142857143" type="curve" smooth="yes"/>
      <point x="199.1" y="220.4135238095238"/>
      <point x="284.1461428571429" y="169.55471428571428"/>
      <point x="410.4666666666667" y="121.86666666666667" type="curve" smooth="yes"/>
      <point x="449.8666666666667" y="104.58333333333334" type="line" smooth="yes"/>
      <point x="626.8583333333333" y="37.248333333333335"/>
      <point x="662.6166666666667" y="-36.28"/>
      <point x="662.6166666666667" y="-126.28333333333333" type="curve" smooth="yes"/>
      <point x="663.6663333333333" y="-201.32333333333332"/>
      <point x="649.6253333333334" y="-276.28766666666667"/>
      <point x="621.0833333333333" y="-348.0" type="curve"/>
    </contour>
  </outline>
</glyph>
<glyph name="pi" format="2">
  <advance width="991"/>
  <unicode hex="03C0"/>
  <outline>
    <contour>
      <point x="32.0" y="971" type="line"/>
      <point x="32.0" y="1076.857142857143" type="line"/>
      <point x="971.15" y="1076.857142857143" type="line"/>
      <point x="971" y="971" type="line"/>
    </contour>
    <contour>
      <point x="161.36666666666667" y="0.0" type="line"/>
      <point x="161.36666666666667" y="1024.5071428571428" type="line"/>
      <point x="273.6166666666667" y="1024.5071428571428" type="line"/>
      <point x="273.6166666666667" y="0.0" type="line"/>
    </contour>
    <contour>
      <point x="890.5833333333334" y="-19.333333333333336" type="curve" smooth="yes"/>
      <point x="774.8743333333333" y="-19.333333333333336"/>
      <point x="732.4166666666666" y="25.415333333333336"/>
      <point x="732.4166666666666" y="146.28333333333333" type="curve"/>
      <point x="732.4166666666666" y="1024.5071428571428" type="line"/>
      <point x="845.3833333333333" y="1024.5071428571428" type="line"/>
      <point x="845.3833333333333" y="158.21666666666667" type="line" smooth="yes"/>
      <point x="845.3833333333333" y="83.35533333333332"/>
      <point x="881.7173333333334" y="79.46666666666667"/>
      <point x="912.85" y="79.46666666666667" type="curve" smooth="yes"/>
      <point x="942.5756666666666" y="79.46666666666667"/>
      <point x="963.8836666666667" y="86.62933333333334"/>
      <point x="980.5666666666666" y="95.25" type="curve"/>
      <point x="980.5666666666666" y="-1.9833333333333343" type="line"/>
      <point x="957.876" y="-13.083000000000002"/>
      <point x="909.9463333333333" y="-19.333333333333336"/>
    </contour>
  </outline>
</glyph>
<glyph name="sigma" format="2">
  <advance width="1043"/>
  <unicode hex="03C3"/>
  <outline>
    <contour>
      <point x="501" y="-30.0" type="curve" smooth="yes"/>
      <point x="238" y="-30"/>
      <point x="85.0" y="184"/>
      <point x="85.0" y="504" type="curve" smooth="yes"/>
      <point x="85.0" y="534.0" type="line" smooth="yes"/>
      <point x="85.0" y="868"/>
      <point x="256" y="1077"/>
      <point x="507" y="1077" type="curve" smooth="yes"/>
      <point x="993" y="1077" type="line"/>
      <point x="993" y="971" type="line"/>
      <point x="712" y="971" type="line"/>
      <point x="712" y="994" type="line"/>
      <point x="848" y="917"/>
      <point x="917" y="761"/>
      <point x="917" y="538.0" type="curve" smooth="yes"/>
      <point x="917" y="508" type="line" smooth="yes"/>
      <point x="917" y="188"/>
      <point x="765" y="-30"/>
    </contour>
    <contour>
      <point x="501" y="71" type="curve" smooth="yes"/>
      <point x="712" y="71"/>
      <point x="803" y="243"/>
      <point x="803" y="506" type="curve" smooth="yes"/>
      <point x="803" y="539" type="line" smooth="yes"/>
      <point x="803" y="806"/>
      <point x="701" y="976"/>
      <point x="504" y="976" type="curve" smooth="yes"/>
      <point x="286" y="976"/>
      <point x="199" y="795"/>
      <point x="199" y="535" type="curve" smooth="yes"/>
      <point x="199" y="502" type="line" smooth="yes"/>
      <point x="199" y="239"/>
      <point x="295" y="71"/>
    </contour>
  </outline>
</glyph>
<glyph name="tau" format="2">
  <advance width="724"/>
  <unicode hex="03C4"/>
  <outline>
    <contour>
      <point x="32.0" y="971.4404761904761" type="line"/>
      <point x="32.0" y="1076.857142857143" type="line"/>
      <point x="706.1" y="1076.857142857143" type="line"/>
      <point x="706.1" y="971.4404761904761" type="line"/>
    </contour>
    <contour>
      <point x="506.65" y="-30.0" type="curve" smooth="yes"/>
      <point x="381.69499999999994" y="-30.0"/>
      <point x="303.15" y="59.22933333333333"/>
      <point x="303.15" y="262.15" type="curve" smooth="yes"/>
      <point x="303.15" y="1024.5071428571428" type="line"/>
      <point x="415.4" y="1024.5071428571428" type="line"/>
      <point x="415.4" y="254.68333333333334" type="line" smooth="yes"/>
      <point x="415.4" y="113.894"/>
      <point x="450.6890000000001" y="73.06666666666666"/>
      <point x="535.5333333333333" y="73.06666666666666" type="curve" smooth="yes"/>
      <point x="568.7876666666667" y="73.06666666666666"/>
      <point x="596.3433333333332" y="78.47533333333334"/>
      <point x="626.7166666666667" y="89.01666666666667" type="curve"/>
      <point x="626.7166666666667" y="-5.016666666666667" type="line"/>
      <point x="600.475" y="-18.21566666666667"/>
      <point x="557.8826666666666" y="-30.0"/>
    </contour>
  </outline>
</glyph>
<glyph name="upsilon" format="2">
  <advance width="962"/>
  <unicode hex="03C5"/>
  <anchor x="481.76666666666665" y="1076.857142857143" name="GRK_top"/>
  <outline>
    <contour>
      <point x="480.7" y="-20.0" type="curve" smooth="yes"/>
      <point x="257.27733333333333" y="-20.0"/>
      <point x="138.0" y="83.13699999999994"/>
      <point x="138.0" y="381.6666666666667" type="curve" smooth="yes"/>
      <point x="138.0" y="1076.857142857143" type="line"/>
      <point x="250.25" y="1076.857142857143" type="line"/>
      <point x="250.25" y="376.4666666666667" type="line" smooth="yes"/>
      <point x="250.25" y="153.8703333333333"/>
      <point x="316.1256666666667" y="81.21666666666667"/>
      <point x="480.7" y="81.21666666666667" type="curve" smooth="yes"/>
      <point x="646.7036666666668" y="81.21666666666667"/>
      <point x="712.2166666666667" y="153.8703333333333"/>
      <point x="712.2166666666667" y="376.4666666666667" type="curve" smooth="yes"/>
      <point x="712.2166666666667" y="1076.857142857143" type="line"/>
      <point x="824.4666666666667" y="1076.857142857143" type="line"/>
      <point x="824.4666666666667" y="381.6666666666667" type="line" smooth="yes"/>
      <point x="824.4666666666667" y="83.13699999999994"/>
      <point x="705.552" y="-20.0"/>
    </contour>
  </outline>
</glyph>
<glyph name="phi" format="2">
  <advance width="1165"/>
  <unicode hex="03C6"/>
  <outline>
    <contour>
      <point x="527.1" y="-416.0" type="line"/>
      <point x="527.1" y="-30.0" type="line"/>
      <point x="278.32899999999995" y="-16.6"/>
      <point x="85.0" y="172.7130952380952"/>
      <point x="85.0" y="520.7142857142857" type="curve" smooth="yes"/>
      <point x="85.0" y="548.4285714285714" type="line" smooth="yes"/>
      <point x="85.0" y="899.3011904761904"/>
      <point x="278.32899999999995" y="1087.8857142857141"/>
      <point x="527.1" y="1101.2857142857142" type="curve"/>
      <point x="527.1" y="1536.0" type="line"/>
      <point x="638.6333333333333" y="1536.0" type="line"/>
      <point x="638.6333333333333" y="1101.2857142857142" type="line"/>
      <point x="887.4043333333333" y="1087.8857142857141"/>
      <point x="1080.7333333333333" y="899.3011904761904"/>
      <point x="1080.7333333333333" y="548.4285714285714" type="curve" smooth="yes"/>
      <point x="1080.7333333333333" y="520.7142857142857" type="line" smooth="yes"/>
      <point x="1080.7333333333333" y="172.7130952380952"/>
      <point x="887.4043333333333" y="-16.6"/>
      <point x="638.6333333333333" y="-30.0" type="curve"/>
      <point x="638.6333333333333" y="-416.0" type="line"/>
    </contour>
    <contour>
      <point x="527.1" y="71.15" type="curve"/>
      <point x="527.1" y="1000.1357142857142" type="line"/>
      <point x="320.15933333333334" y="986.7357142857143"/>
      <point x="199.1" y="837.7245238095238"/>
      <point x="199.1" y="580.4285714285714" type="curve" smooth="yes"/>
      <point x="199.1" y="488.7142857142857" type="line" smooth="yes"/>
      <point x="199.1" y="234.28976190476186"/>
      <point x="331.59399999999994" y="84.55000000000001"/>
    </contour>
    <contour>
      <point x="638.6333333333333" y="71.15" type="line"/>
      <point x="845.574" y="84.55000000000001"/>
      <point x="966.6333333333333" y="234.28976190476186"/>
      <point x="966.6333333333333" y="488.7142857142857" type="curve" smooth="yes"/>
      <point x="966.6333333333333" y="580.4285714285714" type="line" smooth="yes"/>
      <point x="966.6333333333333" y="837.7245238095238"/>
      <point x="834.1393333333333" y="986.7357142857143"/>
      <point x="638.6333333333333" y="1000.1357142857142" type="curve"/>
    </contour>
  </outline>
</glyph>
<glyph name="chi" format="2">
  <advance width="817"/>
  <unicode hex="03C7"/>
  <outline>
    <contour>
      <point x="681.9166666666666" y="-416.0" type="line"/>
      <point x="387.7166666666667" y="301.4904761904762" type="line"/>
      <point x="379.85" y="301.4904761904762" type="line"/>
      <point x="49.81666666666667" y="1076.857142857143" type="line"/>
      <point x="175.21666666666667" y="1076.857142857143" type="line"/>
      <point x="471.6" y="392.15714285714284" type="line"/>
      <point x="480.5333333333333" y="392.15714285714284" type="line"/>
      <point x="808.3833333333333" y="-416.0" type="line"/>
    </contour>
    <contour>
      <point x="17.65" y="-416.0" type="line"/>
      <point x="382.1333333333333" y="406.4238095238095" type="line"/>
      <point x="393.2833333333333" y="406.4238095238095" type="line"/>
      <point x="675.5666666666666" y="1076.857142857143" type="line"/>
      <point x="803.4333333333334" y="1076.857142857143" type="line"/>
      <point x="454.4666666666667" y="295.85714285714283" type="line"/>
      <point x="452.2166666666667" y="295.85714285714283" type="line"/>
      <point x="145.51666666666665" y="-416.0" type="line"/>
    </contour>
  </outline>
</glyph>
<glyph name="kaisymbol" format="2">
  <advance width="824"/>
  <unicode hex="03D7"/>
  <outline>
    <contour>
      <point x="355" y="-541" type="line"/>
      <point x="279" y="-465" type="line"/>
      <point x="713" y="0" type="line"/>
      <point x="406" y="499" type="line"/>
      <point x="260" y="499" type="line"/>
      <point x="260" y="0" type="line"/>
      <point x="148" y="0" type="line"/>
      <point x="148" y="1077" type="line"/>
      <point x="260" y="1077" type="line"/>
      <point x="260" y="599" type="line"/>
      <point x="404" y="599" type="line"/>
      <point x="686" y="1077" type="line"/>
      <point x="796" y="1077" type="line"/>
      <point x="493" y="556" type="line"/>
      <point x="840" y="-9" type="line"/>
    </contour>
  </outline>
</glyph>
<glyph name="Nje" format="2">
  <advance width="1631"/>
  <unicode hex="040A"/>
  <outline>
    <contour>
      <point x="170.0" y="0.0" type="line"/>
      <point x="170.0" y="1456.0" type="line"/>
      <point x="285.3833333333333" y="1456.0" type="line"/>
      <point x="285.3833333333333" y="854.3333333333334" type="line"/>
      <point x="935.1" y="854.3333333333334" type="line"/>
      <point x="935.1" y="1456.0" type="line"/>
      <point x="1050.4833333333333" y="1456.0" type="line"/>
      <point x="1050.4833333333333" y="854.3333333333334" type="line"/>
      <point x="1308.8166666666666" y="854.3333333333334" type="line" smooth="yes"/>
      <point x="1580.8143333333333" y="840.04"/>
      <point x="1715.6166666666668" y="715.1506666666667"/>
      <point x="1715.6166666666668" y="429.15" type="curve" smooth="yes"/>
      <point x="1715.6166666666668" y="140.29066666666665"/>
      <point x="1580.8143333333333" y="0.0"/>
      <point x="1308.8166666666666" y="0.0" type="curve" smooth="yes"/>
      <point x="935.1" y="0.0" type="line"/>
      <point x="935.1" y="750.7666666666667" type="line"/>
      <point x="285.3833333333333" y="750.7666666666667" type="line"/>
      <point x="285.3833333333333" y="0.0" type="line"/>
    </contour>
    <contour>
      <point x="1050.4833333333333" y="750.7666666666667" type="line"/>
      <point x="1050.4833333333333" y="102.5" type="line"/>
      <point x="1308.8166666666666" y="102.5" type="line" smooth="yes"/>
      <point x="1525.9189999999999" y="102.5"/>
      <point x="1600.2333333333333" y="231.12033333333335"/>
      <point x="1600.2333333333333" y="429.15" type="curve" smooth="yes"/>
      <point x="1600.2333333333333" y="626.7106666666667"/>
      <point x="1526.2816666666665" y="750.7666666666667"/>
      <point x="1307.75" y="750.7666666666667" type="curve" smooth="yes"/>
    </contour>
  </outline>
</glyph>
<glyph name="be" format="2">
  <advance width="1008"/>
  <unicode hex="0431"/>
  <outline>
    <contour>
      <point x="209.1" y="579.0" type="curve" smooth="yes"/>
      <point x="209.1" y="483.0" type="line" smooth="yes"/>
      <point x="209.1" y="227.8193333333333"/>
      <point x="311.03099999999995" y="71.15"/>
      <point x="510.26666666666665" y="71.15" type="curve" smooth="yes"/>
      <point x="709.5023333333334" y="71.15"/>
      <point x="812.5" y="227.8193333333333"/>
      <point x="812.5" y="483.0" type="curve" smooth="yes"/>
      <point x="812.5" y="579.0" type="line" smooth="yes"/>
      <point x="812.5" y="841.3273333333334"/>
      <point x="718.0783333333334" y="990.85"/>
      <point x="510.26666666666665" y="990.85" type="curve" smooth="yes"/>
      <point x="302.455" y="990.85"/>
      <point x="209.1" y="834.1806666666668"/>
    </contour>
    <contour>
      <point x="516.9" y="1092.0" type="curve" smooth="yes"/>
      <point x="754.1916666666667" y="1092.0"/>
      <point x="926.6" y="890.241"/>
      <point x="926.6" y="547.0" type="curve" smooth="yes"/>
      <point x="926.6" y="515.0" type="line" smooth="yes"/>
      <point x="926.6" y="165.19299999999998"/>
      <point x="764.018" y="-30.0"/>
      <point x="510.26666666666665" y="-30.0" type="curve" smooth="yes"/>
      <point x="261.183" y="-30.0"/>
      <point x="95.0" y="162.207"/>
      <point x="95.0" y="515.9" type="curve" smooth="yes"/>
      <point x="95.0" y="615.2333333333333" type="line" smooth="yes"/>
      <point x="95.0" y="1128.2523333333334"/>
      <point x="202.05133333333333" y="1387.5976666666666"/>
      <point x="555.7666666666667" y="1441.6666666666667" type="curve" smooth="yes"/>
      <point x="774.9021908954404" y="1477.1904245998978"/>
      <point x="760.9274560106575" y="1500.5499467199545"/>
      <point x="767.6333333333333" y="1536.0" type="curve"/>
      <point x="864.0333333333333" y="1536.0" type="line"/>
      <point x="855.0329999999999" y="1416.941"/>
      <point x="798.5726666666667" y="1372.0796666666668"/>
      <point x="594.1333333333333" y="1343.7833333333333" type="curve" smooth="yes"/>
      <point x="272.2243211532408" y="1300.9387800428776"/>
      <point x="196.91326491873792" y="1132.4042655060255"/>
      <point x="175.86666666666667" y="821.2666666666667" type="curve"/>
      <point x="182.6" y="821.2666666666667" type="line"/>
      <point x="235.17266666666666" y="1011.1893333333334"/>
      <point x="328.496" y="1092.0"/>
    </contour>
  </outline>
</glyph>
<glyph name="che" format="2">
  <advance width="941"/>
  <unicode hex="0447"/>
  <guideline x="855.0" y="515.0" angle="90.0" identifier="GGEFes61Q6"/>
  <outline>
    <contour>
      <point x="241.86666666666667" y="773.0" type="line" smooth="yes"/>
      <point x="241.86666666666667" y="560.0293333333334"/>
      <point x="315.58466666666664" y="496.85"/>
      <point x="480.5833333333333" y="496.85" type="curve" smooth="yes"/>
      <point x="600.5133333333334" y="496.85"/>
      <point x="643.2763333333332" y="502.80400000000003"/>
      <point x="737.3666666666667" y="529.9166666666666" type="curve"/>
      <point x="737.3666666666667" y="429.06666666666666" type="line"/>
      <point x="643.0083333333334" y="407.4033333333333"/>
      <point x="584.0936666666666" y="396.0"/>
      <point x="487.1" y="396.0" type="curve" smooth="yes"/>
      <point x="224.86199999999997" y="396.0"/>
      <point x="130.33333333333334" y="508.39466666666664"/>
      <point x="130.33333333333334" y="773.0" type="curve" smooth="yes"/>
      <point x="130.33333333333334" y="1052.0" type="line"/>
      <point x="241.86666666666667" y="1052.0" type="line"/>
    </contour>
    <contour>
      <point x="793.1333333333333" y="1052.0" type="line"/>
      <point x="793.1333333333333" y="0.0" type="line"/>
      <point x="681.6" y="0.0" type="line"/>
      <point x="681.6" y="1052.0" type="line"/>
    </contour>
  </outline>
</glyph>
<glyph name="yu" format="2">
  <advance width="1369"/>
  <unicode hex="044E"/>
  <guideline x="571.4" y="661.9333333333334" angle="90.0" identifier="yUVFXGYgv5"/>
  <outline>
    <contour>
      <point x="148.0" y="1052.0" type="line"/>
      <point x="259.5333333333333" y="1052.0" type="line"/>
      <point x="259.5333333333333" y="586.35" type="line"/>
      <point x="511.85" y="586.35" type="line"/>
      <point x="511.85" y="485.78333333333336" type="line"/>
      <point x="259.5333333333333" y="485.78333333333336" type="line"/>
      <point x="259.5333333333333" y="0.0" type="line"/>
      <point x="148.0" y="0.0" type="line"/>
    </contour>
    <contour>
      <point x="455.58333333333337" y="510.0" type="curve" smooth="yes"/>
      <point x="455.58333333333337" y="542.0" type="line" smooth="yes"/>
      <point x="455.58333333333337" y="889.5066666666667"/>
      <point x="616.596" y="1082.0"/>
      <point x="869.7666666666667" y="1082.0" type="curve" smooth="yes"/>
      <point x="1122.9373333333333" y="1082.0"/>
      <point x="1285.0166666666667" y="889.5066666666667"/>
      <point x="1285.0166666666667" y="542.0" type="curve" smooth="yes"/>
      <point x="1285.0166666666667" y="510.0" type="line" smooth="yes"/>
      <point x="1285.0166666666667" y="162.49333333333328"/>
      <point x="1122.9373333333333" y="-30.0"/>
      <point x="869.7666666666667" y="-30.0" type="curve" smooth="yes"/>
      <point x="616.596" y="-30.0"/>
      <point x="455.58333333333337" y="162.49333333333328"/>
    </contour>
    <contour>
      <point x="569.6833333333334" y="574.0" type="curve" smooth="yes"/>
      <point x="569.6833333333334" y="478.0" type="line" smooth="yes"/>
      <point x="569.6833333333334" y="224.07"/>
      <point x="671.1116666666667" y="71.15"/>
      <point x="869.7666666666667" y="71.15" type="curve" smooth="yes"/>
      <point x="1068.4216666666666" y="71.15"/>
      <point x="1170.9166666666667" y="224.07"/>
      <point x="1170.9166666666667" y="478.0" type="curve" smooth="yes"/>
      <point x="1170.9166666666667" y="574.0" type="line" smooth="yes"/>
      <point x="1170.9166666666667" y="835.0766666666667"/>
      <point x="1075.5683333333334" y="980.85"/>
      <point x="869.7666666666667" y="980.85" type="curve" smooth="yes"/>
      <point x="663.965" y="980.85"/>
      <point x="569.6833333333334" y="827.9300000000001"/>
    </contour>
  </outline>
</glyph>
<glyph name="ustraightstroke" format="2">
  <advance width="856"/>
  <unicode hex="04B1"/>
  <outline>
    <contour>
      <point x="138.26666666666665" y="-98.41666666666666" type="line"/>
      <point x="138.26666666666665" y="0.0" type="line"/>
      <point x="371.35" y="0.0" type="line"/>
      <point x="0.0" y="1052.0" type="line"/>
      <point x="126.96666666666667" y="1052.0" type="line"/>
      <point x="385.4166666666667" y="319.55" type="line" smooth="yes"/>
      <point x="403.8193333333333" y="265.95"/>
      <point x="414.33599999999996" y="235.12733333333335"/>
      <point x="424.96666666666664" y="168.21666666666667" type="curve"/>
      <point x="431.68333333333334" y="168.21666666666667" type="line"/>
      <point x="441.84499999999997" y="235.12733333333335"/>
      <point x="452.8306666666667" y="265.95"/>
      <point x="471.23333333333335" y="319.55" type="curve" smooth="yes"/>
      <point x="732.3333333333334" y="1052.0" type="line"/>
      <point x="855.6666666666666" y="1052.0" type="line"/>
      <point x="482.8833333333333" y="0.0" type="line"/>
      <point x="715.9666666666667" y="0.0" type="line"/>
      <point x="715.9666666666667" y="-98.41666666666666" type="line"/>
      <point x="482.8833333333333" y="-98.41666666666666" type="line"/>
      <point x="482.8833333333333" y="-416.0" type="line"/>
      <point x="371.35" y="-416.0" type="line"/>
      <point x="371.35" y="-98.41666666666666" type="line"/>
    </contour>
  </outline>
</glyph>
<glyph name="Obarcyr" format="2">
  <advance width="1235"/>
  <unicode hex="04E8"/>
  <guideline x="212.0" y="786.0" angle="90.0" identifier="UtNSclIhRG"/>
  <guideline x="1248.0" y="730.0" angle="90.0" identifier="hwb5F7EShy"/>
  <outline>
    <contour>
      <point x="173.33333333333334" y="802.7833333333333" type="line"/>
      <point x="1062.5333333333333" y="802.7833333333333" type="line"/>
      <point x="1062.5333333333333" y="699.2166666666667" type="line"/>
      <point x="173.33333333333334" y="699.2166666666667" type="line"/>
    </contour>
    <contour>
      <point x="115.0" y="692.75" type="curve" smooth="yes"/>
      <point x="115.0" y="763.25" type="line" smooth="yes"/>
      <point x="115.0" y="1258.4023333333334"/>
      <point x="314.991" y="1486.0"/>
      <point x="617.1833333333334" y="1486.0" type="curve" smooth="yes"/>
      <point x="919.3756666666668" y="1486.0"/>
      <point x="1119.0166666666667" y="1258.4023333333334"/>
      <point x="1119.0166666666667" y="763.25" type="curve" smooth="yes"/>
      <point x="1119.0166666666667" y="692.75" type="line" smooth="yes"/>
      <point x="1119.0166666666667" y="197.59766666666667"/>
      <point x="919.3756666666668" y="-30.0"/>
      <point x="617.1833333333334" y="-30.0" type="curve" smooth="yes"/>
      <point x="315.9513333333333" y="-30.0"/>
      <point x="115.0" y="197.59766666666667"/>
    </contour>
    <contour>
      <point x="230.60000000000002" y="660.75" type="line" smooth="yes"/>
      <point x="230.60000000000002" y="260.1123333333333"/>
      <point x="378.06033333333335" y="75.63333333333333"/>
      <point x="617.1833333333334" y="75.63333333333333" type="curve" smooth="yes"/>
      <point x="857.2666666666667" y="75.63333333333333"/>
      <point x="1002.35" y="260.1123333333333"/>
      <point x="1002.35" y="660.75" type="curve" smooth="yes"/>
      <point x="1002.35" y="796.3166666666666" type="line" smooth="yes"/>
      <point x="1002.35" y="1196.9543333333334"/>
      <point x="857.2666666666667" y="1380.3666666666666"/>
      <point x="617.1833333333334" y="1380.3666666666666" type="curve" smooth="yes"/>
      <point x="378.06033333333335" y="1380.3666666666666"/>
      <point x="230.60000000000002" y="1196.9543333333334"/>
      <point x="230.60000000000002" y="796.3166666666666" type="curve" smooth="yes"/>
    </contour>
  </outline>
</glyph>
<glyph name="quotesinglbase" format="2">
  <advance width="410"/>
  <unicode hex="201A"/>
  <outline>
    <contour>
      <point x="289.3333333333333" y="220.0" type="line"/>
      <point x="289.3333333333333" y="97.01666666666667" type="line" smooth="yes"/>
      <point x="289.3333333333333" y="-23.583333333333343"/>
      <point x="240.04500000000002" y="-153.56733333333332"/>
      <point x="134.96666666666667" y="-242.76666666666665" type="curve"/>
      <point x="60.5" y="-191.98333333333332" type="line"/>
      <point x="130.20233333333334" y="-110.26566666666666"/>
      <point x="163.38333333333333" y="-14.52333333333334"/>
      <point x="163.38333333333333" y="94.01666666666667" type="curve" smooth="yes"/>
      <point x="163.38333333333333" y="220.0" type="line"/>
    </contour>
  </outline>
</glyph>
<glyph name="Euro" format="2">
  <advance width="978"/>
  <unicode hex="20AC"/>
  <outline>
    <contour>
      <point x="718.6666666666666" y="955.5" type="line"/>
      <point x="721.6666666666666" y="860.65" type="line"/>
      <point x="22.0" y="860.65" type="line"/>
      <point x="22.0" y="955.5" type="line"/>
    </contour>
    <contour>
      <point x="721.6666666666666" y="629.5" type="line"/>
      <point x="721.6666666666666" y="535.65" type="line"/>
      <point x="22.0" y="535.65" type="line"/>
      <point x="22.0" y="629.5" type="line"/>
    </contour>
    <contour>
      <point x="132.38333333333333" y="544.0" type="curve" smooth="yes"/>
      <point x="132.38333333333333" y="903.0" type="line" smooth="yes"/>
      <point x="132.38333333333333" y="1216.2696666666666"/>
      <point x="257.9643333333333" y="1484.0"/>
      <point x="583.3833333333333" y="1484.0" type="curve" smooth="yes"/>
      <point x="671.667" y="1484.0"/>
      <point x="809.5096666666666" y="1442.6366666666665"/>
      <point x="904.7166666666667" y="1337.0" type="curve"/>
      <point x="828.5666666666667" y="1255.45" type="line"/>
      <point x="747.4966666666667" y="1342.9296666666667"/>
      <point x="660.1646666666666" y="1371.9333333333334"/>
      <point x="590.2166666666667" y="1371.9333333333334" type="curve" smooth="yes"/>
      <point x="344.5723333333333" y="1371.9333333333334"/>
      <point x="248.31666666666666" y="1161.7389999999998"/>
      <point x="248.31666666666666" y="906.0" type="curve" smooth="yes"/>
      <point x="248.31666666666666" y="541.0" type="line" smooth="yes"/>
      <point x="248.31666666666666" y="283.65299999999996"/>
      <point x="347.46433333333334" y="80.5"/>
      <point x="604.7666666666667" y="80.5" type="curve" smooth="yes"/>
      <point x="668.1263333333333" y="80.5"/>
      <point x="762.0106666666666" y="110.82166666666666"/>
      <point x="846.9666666666667" y="204.73333333333335" type="curve"/>
      <point x="917.7166666666667" y="126.0" type="line"/>
      <point x="824.4303333333334" y="11.854333333333315"/>
      <point x="686.4863333333334" y="-30.0"/>
      <point x="585.3833333333333" y="-30.0" type="curve" smooth="yes"/>
      <point x="247.07800000000003" y="-30.0"/>
      <point x="132.38333333333333" y="199.0616666666666"/>
    </contour>
  </outline>
</glyph>
<glyph name="manat" format="2">
  <advance width="1130"/>
  <unicode hex="20BC"/>
  <outline>
    <contour>
      <point x="1005.0" y="916.0" type="curve" smooth="yes"/>
      <point x="1005.0" y="0.0" type="line"/>
      <point x="891.0833333333334" y="0.0" type="line"/>
      <point x="891.0833333333334" y="916.0" type="line" smooth="yes"/>
      <point x="893.1826666666666" y="1172.6100000000001"/>
      <point x="776.983" y="1313.6"/>
      <point x="543.6666666666666" y="1313.6" type="curve" smooth="yes"/>
      <point x="310.3503333333333" y="1313.6"/>
      <point x="196.25" y="1172.6100000000001"/>
      <point x="196.25" y="916.0" type="curve" smooth="yes"/>
      <point x="196.25" y="0.0" type="line"/>
      <point x="82.33333333333333" y="0.0" type="line"/>
      <point x="82.33333333333333" y="916.0" type="line" smooth="yes"/>
      <point x="83.47233333333334" y="1251.0"/>
      <point x="263.6066666666667" y="1416.0"/>
      <point x="543.6666666666666" y="1416.0" type="curve" smooth="yes"/>
      <point x="825.0666666666666" y="1416.0"/>
      <point x="1003.5930000000001" y="1251.0"/>
    </contour>
    <contour>
      <point x="596.4333333333334" y="0.0" type="line"/>
      <point x="490.9" y="0.0" type="line"/>
      <point x="490.9" y="1582.0" type="line"/>
      <point x="596.4333333333334" y="1582.0" type="line"/>
    </contour>
  </outline>
</glyph>
<glyph name="hookabovecomb.case" format="2">
  <advance width="1024"/>
  <outline>
    <contour>
      <point x="388.3333333333333" y="1577.0" type="line"/>
      <point x="388.3333333333333" y="1616.0" type="line" smooth="yes"/>
      <point x="388.3333333333333" y="1676.0766666666666"/>
      <point x="410.213" y="1699.129"/>
      <point x="522.6166666666667" y="1716.75" type="curve" smooth="yes"/>
      <point x="602.4583333333334" y="1729.3906666666667"/>
      <point x="639.4" y="1764.5106666666668"/>
      <point x="639.4" y="1827.1333333333334" type="curve" smooth="yes"/>
      <point x="639.4" y="1897.6396666666667"/>
      <point x="590.9483333333333" y="1934.3833333333334"/>
      <point x="504.18333333333334" y="1934.3833333333334" type="curve" smooth="yes"/>
      <point x="412.66133333333335" y="1934.3833333333334"/>
      <point x="331.87" y="1901.251"/>
      <point x="308.8666666666667" y="1887.65" type="curve"/>
      <point x="272.06666666666666" y="1968.9333333333334" type="line"/>
      <point x="316.0856666666667" y="1994.3933333333334"/>
      <point x="405.93899999999996" y="2027.5"/>
      <point x="518.7" y="2027.5" type="curve" smooth="yes"/>
      <point x="667.976" y="2027.5"/>
      <point x="749.3666666666667" y="1949.9096666666667"/>
      <point x="749.3666666666667" y="1831.8333333333333" type="curve" smooth="yes"/>
      <point x="749.3666666666667" y="1712.819"/>
      <point x="657.0006666666667" y="1638.0336666666667"/>
      <point x="482.6666666666667" y="1622.3333333333333" type="curve"/>
      <point x="482.6666666666667" y="1577.0" type="line"/>
    </contour>
  </outline>
</glyph>
<glyph name="hookabovecombstack.case" format="2">
  <advance width="1024"/>
  <outline>
    <contour>
      <point x="377.2" y="1554.0" type="line"/>
      <point x="377.2" y="1593.8333333333333" type="line" smooth="yes"/>
      <point x="377.2" y="1648.3713333333333"/>
      <point x="397.96333333333337" y="1670.149437908489"/>
      <point x="506.95" y="1682.6333333333334" type="curve" smooth="yes"/>
      <point x="596.8543660130456" y="1693.934"/>
      <point x="618.0666666666667" y="1726.6066666666666"/>
      <point x="618.0666666666667" y="1784.45" type="curve" smooth="yes"/>
      <point x="618.0666666666667" y="1857.7602614378895"/>
      <point x="573.9499999999999" y="1880.3"/>
      <point x="489.0833333333333" y="1880.3" type="curve" smooth="yes"/>
      <point x="400.5986666666667" y="1880.3"/>
      <point x="322.6236666666667" y="1850.3546666666666"/>
      <point x="300.0" y="1837.1333333333334" type="curve"/>
      <point x="264.9" y="1913.85" type="line"/>
      <point x="307.4003333333334" y="1937.5903333333333"/>
      <point x="393.3096666666666" y="1967.2833333333333"/>
      <point x="503.03333333333336" y="1967.2833333333333" type="curve" smooth="yes"/>
      <point x="646.994" y="1967.2833333333333"/>
      <point x="725.4833333333333" y="1896.3416666666667"/>
      <point x="725.4833333333333" y="1788.5833333333333" type="curve" smooth="yes"/>
      <point x="725.4833333333333" y="1679.686"/>
      <point x="639.5659999999999" y="1614.9436666666666"/>
      <point x="478.9" y="1600.5833333333333" type="curve"/>
      <point x="478.9" y="1554.0" type="line"/>
    </contour>
  </outline>
</glyph>
<glyph name="horncomb.case" format="2">
  <advance width="1024"/>
  <outline>
    <contour>
      <point x="382.0" y="1431.4150326797667" type="line"/>
      <point x="455.0" y="1431.4150326797667" type="line" smooth="yes"/>
      <point x="569.1903333333333" y="1431.4150326797667"/>
      <point x="618.0833333333334" y="1445.4000326797666"/>
      <point x="618.0833333333334" y="1526.5816993464334" type="curve" smooth="yes"/>
      <point x="618.0833333333334" y="1581.5216993464335"/>
      <point x="610.1433333333333" y="1628.3416993464334"/>
      <point x="598.0833333333334" y="1676.5816993464334" type="curve"/>
      <point x="683.4866013072051" y="1676.5816993464334" type="line"/>
      <point x="704.3459346405383" y="1634.0813660131"/>
      <point x="729.4699346405383" y="1571.4083660131"/>
      <point x="729.4699346405383" y="1492.3483660131" type="curve" smooth="yes"/>
      <point x="729.4699346405383" y="1397.4763660130998"/>
      <point x="654.7986666666667" y="1352.212745098035"/>
      <point x="530.0" y="1352.212745098035" type="curve" smooth="yes"/>
      <point x="468.36" y="1352.212745098035"/>
      <point x="416.84000000000003" y="1358.3209607843057"/>
      <point x="382.0" y="1368.9967320261283" type="curve"/>
    </contour>
  </outline>
</glyph>
<glyph name="six.prop" format="2">
  <advance width="1021"/>
  <outline>
    <contour>
      <point x="138.63333333333333" y="614.0" type="curve" smooth="yes"/>
      <point x="138.63333333333333" y="644.0" type="line" smooth="yes"/>
      <point x="138.63333333333333" y="1157.0413333333331"/>
      <point x="384.6446666666667" y="1486.0"/>
      <point x="744.1666666666666" y="1486.0" type="curve" smooth="yes"/>
      <point x="761.6833333333334" y="1486.0" type="line"/>
      <point x="761.6833333333334" y="1385.65" type="line"/>
      <point x="744.1666666666666" y="1385.65" type="line" smooth="yes"/>
      <point x="461.09166666666664" y="1385.65"/>
      <point x="246.43333333333334" y="1133.5636666666667"/>
      <point x="246.43333333333334" y="654.0" type="curve" smooth="yes"/>
      <point x="246.43333333333334" y="604.0" type="line" smooth="yes"/>
      <point x="246.43333333333334" y="212.89866666666666"/>
      <point x="377.62166666666667" y="70.35"/>
      <point x="553.05" y="70.35" type="curve" smooth="yes"/>
      <point x="727.049" y="70.35"/>
      <point x="818.1666666666666" y="213.12966666666668"/>
      <point x="818.1666666666666" y="464.0" type="curve" smooth="yes"/>
      <point x="818.1666666666666" y="700.9566666666667"/>
      <point x="725.8306666666666" y="834.1666666666666"/>
      <point x="556.6333333333333" y="834.1666666666666" type="curve" smooth="yes"/>
      <point x="386.4756666666666" y="834.1666666666666"/>
      <point x="240.43333333333334" y="682.2413333333334"/>
      <point x="240.43333333333334" y="464.0" type="curve"/>
      <point x="195.13333333333333" y="464.0" type="line"/>
      <point x="195.13333333333333" y="742.0053333333334"/>
      <point x="356.40133333333335" y="934.5166666666667"/>
      <point x="570.5333333333333" y="934.5166666666667" type="curve" smooth="yes"/>
      <point x="793.7103333333334" y="934.5166666666667"/>
      <point x="927.9666666666667" y="745.8466666666668"/>
      <point x="927.9666666666667" y="464.0" type="curve" smooth="yes"/>
      <point x="927.9666666666667" y="169.2"/>
      <point x="780.046" y="-30.0"/>
      <point x="553.05" y="-30.0" type="curve" smooth="yes"/>
      <point x="313.56966666666665" y="-30.0"/>
      <point x="138.63333333333333" y="179.52733333333327"/>
    </contour>
  </outline>
</glyph>
<glyph name="two.prop" format="2">
  <advance width="1041"/>
  <outline>
    <contour>
      <point x="142.83333333333331" y="0.0" type="line"/>
      <point x="142.83333333333331" y="92.01666666666667" type="line"/>
      <point x="593.9333333333333" y="722.15" type="line" smooth="yes"/>
      <point x="697.0686666666667" y="863.3636666666666"/>
      <point x="752.3833333333333" y="970.8326666666667"/>
      <point x="752.3833333333333" y="1121.7166666666667" type="curve" smooth="yes"/>
      <point x="752.3833333333333" y="1271.0596666666668"/>
      <point x="671.8100000000001" y="1386.610333333333"/>
      <point x="521.2833333333333" y="1385.65" type="curve" smooth="yes"/>
      <point x="366.4463333333333" y="1384.6896666666667"/>
      <point x="254.06666666666666" y="1285.0563333333334"/>
      <point x="254.06666666666666" y="1041.4666666666667" type="curve" smooth="yes"/>
      <point x="254.06666666666666" y="1027.1666666666667" type="line"/>
      <point x="144.98333333333332" y="1027.1666666666667" type="line"/>
      <point x="144.98333333333332" y="1040.75" type="line" smooth="yes"/>
      <point x="144.98333333333332" y="1326.8400000000001"/>
      <point x="301.9476666666667" y="1486.0"/>
      <point x="521.2833333333333" y="1486.0" type="curve" smooth="yes"/>
      <point x="735.3483333333334" y="1486.0"/>
      <point x="862.1833333333334" y="1329.3283333333334"/>
      <point x="862.1833333333334" y="1125.9833333333333" type="curve" smooth="yes"/>
      <point x="862.1833333333334" y="959.9350000000001"/>
      <point x="809.6479999999999" y="852.4576666666667"/>
      <point x="672.7" y="662.2" type="curve" smooth="yes"/>
      <point x="257.7" y="99.06666666666666" type="line"/>
      <point x="902.95" y="99.06666666666666" type="line"/>
      <point x="902.95" y="0.0" type="line"/>
    </contour>
  </outline>
</glyph>
<glyph name="yu.bgr" format="2">
  <advance width="1377"/>
  <outline>
    <contour>
      <point x="463.58333333333337" y="510.0" type="curve" smooth="yes"/>
      <point x="463.58333333333337" y="542.0" type="line" smooth="yes"/>
      <point x="463.58333333333337" y="889.5066666666667"/>
      <point x="624.596" y="1082.0"/>
      <point x="877.7666666666667" y="1082.0" type="curve" smooth="yes"/>
      <point x="1130.9373333333333" y="1082.0"/>
      <point x="1293.0166666666667" y="889.5066666666667"/>
      <point x="1293.0166666666667" y="542.0" type="curve" smooth="yes"/>
      <point x="1293.0166666666667" y="510.0" type="line" smooth="yes"/>
      <point x="1293.0166666666667" y="162.49333333333328"/>
      <point x="1130.9373333333333" y="-30.0"/>
      <point x="877.7666666666667" y="-30.0" type="curve" smooth="yes"/>
      <point x="624.596" y="-30.0"/>
      <point x="463.58333333333337" y="162.49333333333328"/>
    </contour>
    <contour>
      <point x="577.6833333333334" y="574.0" type="curve" smooth="yes"/>
      <point x="577.6833333333334" y="478.0" type="line" smooth="yes"/>
      <point x="577.6833333333334" y="224.07"/>
      <point x="679.1116666666667" y="71.15"/>
      <point x="877.7666666666667" y="71.15" type="curve" smooth="yes"/>
      <point x="1076.4216666666666" y="71.15"/>
      <point x="1178.9166666666667" y="224.07"/>
      <point x="1178.9166666666667" y="478.0" type="curve" smooth="yes"/>
      <point x="1178.9166666666667" y="574.0" type="line" smooth="yes"/>
      <point x="1178.9166666666667" y="835.0766666666667"/>
      <point x="1083.5683333333332" y="980.85"/>
      <point x="877.7666666666667" y="980.85" type="curve" smooth="yes"/>
      <point x="671.965" y="980.85"/>
      <point x="577.6833333333334" y="827.9300000000001"/>
    </contour>
    <contour>
      <point x="156.0" y="1536.0" type="line"/>
      <point x="267.5333333333333" y="1536.0" type="line"/>
      <point x="267.5333333333333" y="586.35" type="line"/>
      <point x="516.7166666666667" y="586.35" type="line"/>
      <point x="516.7166666666667" y="485.78333333333336" type="line"/>
      <point x="267.5333333333333" y="485.78333333333336" type="line"/>
      <point x="267.5333333333333" y="0.0" type="line"/>
      <point x="156.0" y="0.0" type="line"/>
    </contour>
  </outline>
</glyph>
